<?xml version="1.0" encoding="UTF-8" standalone="no"?>
<!DOCTYPE svg PUBLIC "-//W3C//DTD SVG 1.1//EN" "http://www.w3.org/Graphics/SVG/1.1/DTD/svg11.dtd">
<svg width="100%" height="100%" viewBox="0 0 1080 1080" version="1.1" xmlns="http://www.w3.org/2000/svg" xmlns:xlink="http://www.w3.org/1999/xlink" xml:space="preserve" xmlns:serif="http://www.serif.com/" style="fill-rule:evenodd;clip-rule:evenodd;stroke-linejoin:round;stroke-miterlimit:2;">
    <g transform="matrix(1,0,0,1,1,0)">
        <g transform="matrix(1.00361,0,0,1.00904,-0.992367,-4.60461)">
            <rect x="-0.008" y="4.563" width="1076.12" height="1070.33" style="fill:rgb(180,180,181);"/>
        </g>
        <g transform="matrix(0.836133,0,0,0.836133,-342.42,17.7894)">
            <g transform="matrix(1.19598,0,0,1.19598,337.587,14.0804)">
                <path d="M499.43,22.775C484.582,24.102 477.76,28.87 467.76,38.87C457.76,48.87 442.253,61.101 438.92,74.434C435.686,87.37 436.667,110 440,120C442.981,128.944 462.184,138.285 462.184,138.285C462.184,138.285 414.721,178.887 398.533,208.026C381.866,238.026 353.947,296.373 343.947,323.04C336.545,342.779 332.132,361.704 329.152,378.438C327.951,385.183 331.67,395.156 332.836,404.281C334.99,421.141 325.086,455.178 319.294,475.448C312.627,498.782 304.215,545.283 304.215,568.616C304.215,589.698 317.858,593.175 323.65,613.446C330.317,636.779 326.984,669.735 328.873,701.871C330.438,728.491 332.514,767.31 340,780C345.113,788.667 358.619,783.074 361.229,790.264C368.2,809.474 374.67,875.568 381.828,895.26C384.044,901.355 379.272,904.835 380.08,909.573C381.84,919.888 395.458,931.215 404.961,930C409.489,929.421 409.07,942.568 417.668,950.399C422.294,954.612 420.669,965.061 423.157,968.526C425.488,971.772 432.241,967.848 434.926,970.808C437.858,974.039 439.192,990.785 443.185,986.93C447.178,983.075 451.292,959.621 458.885,947.678C466.343,935.947 482.183,929.532 486.302,916.256C491.702,898.85 488.831,851.693 491.283,843.242C493.545,835.45 496.295,859.877 501.72,861.984C507.145,864.091 523.737,860.934 525.651,852.899C529.152,838.196 516.022,802.826 522.027,777.333C529.03,747.603 552.543,689.252 561.78,678.637C570.084,669.094 570.816,704.54 576.596,709.976C582.265,715.308 599.477,711.859 601.268,704.285C605.219,687.579 596.287,636.762 606.536,603.292C617.863,566.301 687.575,489.135 687.575,489.135C687.575,489.135 696.473,530.922 695.554,549.366C694.413,572.266 682.464,597.046 678.972,620.625C676.089,640.092 668.642,674.97 669.967,686.714C670.629,692.587 681.668,698.299 687.53,697.54C693.566,696.759 706.599,694.521 710.821,686.151C715.647,676.585 713.316,655.586 712.378,641.79C711.18,624.16 704.395,602.263 703.634,580.375C702.874,558.487 708.242,532.797 712.342,513.789C715.86,497.479 720.277,480.24 728.237,466.326C736.196,452.412 748.499,441.369 760.099,430.306C775.369,415.742 802.877,399.07 820.028,385.102C833.982,373.738 854.217,356.533 868.369,348.698C881.268,341.556 891.726,335.822 904.769,331.935C916.759,328.362 929.929,327.686 941.267,323.179C952.558,318.691 959.511,312.379 968.55,305.42C977.174,298.78 982.065,291.332 988.575,284.129C994.305,277.789 1001.21,267.652 1006.2,262.81C1010.13,258.991 1025.33,251.034 1028.46,246.534C1032.57,240.632 1034.21,234.389 1036.5,226.268C1038.55,218.961 1041.02,210.731 1039.12,203.649C1037.22,196.566 1033.68,189.641 1028.7,183.247C1021.97,174.612 1002.18,157.505 992.471,150.207C983.41,143.396 979.579,146.428 968.679,143.317C953.678,139.037 916.716,130.26 900.941,126.672C870.401,119.724 837.403,115.484 835.352,114.823C818.574,109.415 830.791,108.675 812.302,102.337C796.682,96.983 786.089,90.354 769.994,86.665C752.702,82.701 711.745,75.041 694.811,74.34C680.717,73.756 677.029,99.471 668.754,79.538C661.78,62.738 617.667,49.48 599.661,43.573C590.332,40.512 577.263,35.438 550.97,30.518C531.805,26.931 516.968,21.207 499.43,22.775Z" style="fill:rgb(255,205,138);"/>
                <clipPath id="_clip1">
                    <path d="M499.43,22.775C484.582,24.102 477.76,28.87 467.76,38.87C457.76,48.87 442.253,61.101 438.92,74.434C435.686,87.37 436.667,110 440,120C442.981,128.944 462.184,138.285 462.184,138.285C462.184,138.285 414.721,178.887 398.533,208.026C381.866,238.026 353.947,296.373 343.947,323.04C336.545,342.779 332.132,361.704 329.152,378.438C327.951,385.183 331.67,395.156 332.836,404.281C334.99,421.141 325.086,455.178 319.294,475.448C312.627,498.782 304.215,545.283 304.215,568.616C304.215,589.698 317.858,593.175 323.65,613.446C330.317,636.779 326.984,669.735 328.873,701.871C330.438,728.491 332.514,767.31 340,780C345.113,788.667 358.619,783.074 361.229,790.264C368.2,809.474 374.67,875.568 381.828,895.26C384.044,901.355 379.272,904.835 380.08,909.573C381.84,919.888 395.458,931.215 404.961,930C409.489,929.421 409.07,942.568 417.668,950.399C422.294,954.612 420.669,965.061 423.157,968.526C425.488,971.772 432.241,967.848 434.926,970.808C437.858,974.039 439.192,990.785 443.185,986.93C447.178,983.075 451.292,959.621 458.885,947.678C466.343,935.947 482.183,929.532 486.302,916.256C491.702,898.85 488.831,851.693 491.283,843.242C493.545,835.45 496.295,859.877 501.72,861.984C507.145,864.091 523.737,860.934 525.651,852.899C529.152,838.196 516.022,802.826 522.027,777.333C529.03,747.603 552.543,689.252 561.78,678.637C570.084,669.094 570.816,704.54 576.596,709.976C582.265,715.308 599.477,711.859 601.268,704.285C605.219,687.579 596.287,636.762 606.536,603.292C617.863,566.301 687.575,489.135 687.575,489.135C687.575,489.135 696.473,530.922 695.554,549.366C694.413,572.266 682.464,597.046 678.972,620.625C676.089,640.092 668.642,674.97 669.967,686.714C670.629,692.587 681.668,698.299 687.53,697.54C693.566,696.759 706.599,694.521 710.821,686.151C715.647,676.585 713.316,655.586 712.378,641.79C711.18,624.16 704.395,602.263 703.634,580.375C702.874,558.487 708.242,532.797 712.342,513.789C715.86,497.479 720.277,480.24 728.237,466.326C736.196,452.412 748.499,441.369 760.099,430.306C775.369,415.742 802.877,399.07 820.028,385.102C833.982,373.738 854.217,356.533 868.369,348.698C881.268,341.556 891.726,335.822 904.769,331.935C916.759,328.362 929.929,327.686 941.267,323.179C952.558,318.691 959.511,312.379 968.55,305.42C977.174,298.78 982.065,291.332 988.575,284.129C994.305,277.789 1001.21,267.652 1006.2,262.81C1010.13,258.991 1025.33,251.034 1028.46,246.534C1032.57,240.632 1034.21,234.389 1036.5,226.268C1038.55,218.961 1041.02,210.731 1039.12,203.649C1037.22,196.566 1033.68,189.641 1028.7,183.247C1021.97,174.612 1002.18,157.505 992.471,150.207C983.41,143.396 979.579,146.428 968.679,143.317C953.678,139.037 916.716,130.26 900.941,126.672C870.401,119.724 837.403,115.484 835.352,114.823C818.574,109.415 830.791,108.675 812.302,102.337C796.682,96.983 786.089,90.354 769.994,86.665C752.702,82.701 711.745,75.041 694.811,74.34C680.717,73.756 677.029,99.471 668.754,79.538C661.78,62.738 617.667,49.48 599.661,43.573C590.332,40.512 577.263,35.438 550.97,30.518C531.805,26.931 516.968,21.207 499.43,22.775Z"/>
                </clipPath>
                <g clip-path="url(#_clip1)">
                    <path d="M437.597,87.564C444.735,81.048 457.099,88.66 466.311,91.582C477.355,95.087 490.689,104.681 503.862,108.589C519.074,113.101 543.496,114.776 557.582,118.659C568.351,121.628 577.878,128.064 588.375,131.889C602.946,137.199 629.681,147.16 645.006,150.517C656.515,153.038 668.897,149.146 680.322,152.03C697.157,156.281 729.64,169.22 746.015,176.02C757.296,180.705 767.467,187.755 778.576,192.833C795.382,200.515 830.771,218.052 846.852,222.113C856.107,224.45 867.799,222.036 875.063,217.198C882.327,212.361 885.066,200.963 890.434,193.087C896.649,183.969 902.235,168.994 912.355,162.488C922.475,155.982 940.332,153.422 951.154,154.051C960.753,154.61 968.8,161.744 977.286,166.264C986.207,171.017 995.424,177.352 1004.68,182.569C1014.26,187.963 1028.53,189.116 1034.73,198.631C1042.36,210.343 1060.01,236.615 1050.48,252.845C1025.91,294.71 948.576,390.535 887.298,449.821C820.439,514.507 707.629,564.147 649.33,640.959C591.031,717.771 572.196,852.724 537.505,910.695C516.281,946.162 459.297,979.295 441.185,988.785C433.954,992.574 428.902,975.797 428.835,967.633C428.75,957.133 439.299,940.214 440.673,925.782C449.477,833.305 487.57,542.512 481.66,412.773C477.471,320.798 412.558,201.552 405.214,147.35C402.171,124.891 427.414,96.859 437.597,87.564Z" style="fill-opacity:0.09;"/>
                    <path d="M464.477,135.608C476.463,132.45 491.83,134.533 501.581,138.034C510.473,141.227 516.407,151.099 522.983,156.615C528.898,161.577 533.51,169.404 541.036,171.128C550.496,173.295 567.324,166.081 579.742,169.617C595.666,174.152 614.955,186.653 634.256,192.963C653.16,199.143 684.205,202.502 695.547,207.476C702.449,210.502 696.892,218.467 701.682,223.266C706.473,228.064 719.253,232.678 724.29,236.269C728.933,239.579 729.222,248.839 734.855,249.721C746.028,251.472 779.156,246.018 796.807,250.652C814.458,255.287 828.428,263.688 841.971,268.601C851.951,272.221 865.185,274.51 872.582,276.249C878.154,277.558 886.42,282.377 885.144,287.958C884.342,291.464 870.471,312.082 844.591,343.854C829.634,362.216 799.867,368.898 781.194,384.841C764.657,398.962 750.922,419.477 740.908,436.152C731.879,451.186 721.108,484.892 721.108,484.892L736.914,716.983L656.467,704.736C656.467,704.736 685.047,529.007 687.165,492.229C687.543,485.654 675.379,481.857 669.174,484.064C660.959,486.987 646.595,499.459 637.873,509.763C629.002,520.242 620.901,533.431 615.951,546.939C610.183,562.682 602.219,584.692 603.264,604.221C604.675,630.571 624.416,705.041 624.416,705.041L570.005,737.959C570.005,737.959 571.398,692.964 567.772,679.358C565.198,669.701 555.573,652.937 548.249,656.326C540.924,659.716 524.108,685.176 519.089,702.745C513.813,721.209 516.598,767.106 516.598,767.106L546.261,851.883C519.271,880.737 493.676,905.486 461.362,950.021C448.676,933.793 436.552,919.863 425.895,911.918L404.642,925.279C394.734,928.712 388.235,925.975 384.463,918.303C380.073,923.044 385.207,853.409 388.028,828.801C389.373,817.061 383.583,801.519 379.389,794.418C376.261,789.121 369.015,786.412 362.867,786.197C350.13,785.753 302.969,791.752 302.969,791.752L289.934,338.384L404.101,163.721C404.101,163.721 448.231,139.889 464.477,135.608Z" style="fill:rgb(255,245,128);"/>
                </g>
            </g>
        </g>
        <g transform="matrix(0.836133,0,0,0.836133,-342.42,17.7894)">
            <g transform="matrix(1.19598,0,0,1.19598,337.587,14.0804)">
                <path d="M598.471,783.992C594.822,776.763 584.089,778.783 581.686,785.834C579.371,792.624 570.87,809.876 572.041,817.964C573.157,825.677 581.218,832.126 585.98,832.484C590.741,832.841 599.431,826.184 600.608,820.108C602.235,811.714 601.411,789.817 598.471,783.992Z" style="fill:rgb(255,245,128);"/>
            </g>
        </g>
        <g transform="matrix(0.836133,0,0,0.836133,-342.42,17.7894)">
            <g transform="matrix(1.19598,0,0,1.19598,337.587,14.0804)">
                <path d="M489.58,200.212L481.048,195.469L471.431,197.863C468.039,199.308 465.243,200.831 462.774,202.755C457.888,206.563 453.735,210.972 448.261,215.816C437.994,224.899 429.017,234.865 420.742,245.573C407.989,262.077 396.83,279.876 385.033,297.876C381.635,303.06 378.175,310.758 374.761,319.646C367.976,337.31 361.381,359.176 355.637,375.186C355.535,375.537 355.166,375.739 354.814,375.637C354.463,375.535 354.261,375.166 354.363,374.814C358.132,358.145 362.038,335.531 366.642,317.084C369.163,306.987 371.971,298.201 374.967,292.124C384.689,272.407 393.814,252.986 404.69,234.666C412.312,221.83 420.834,209.735 430.855,198.41C436.122,192.457 440.07,187.191 444.84,182.434C448.664,178.619 453.061,175.325 458.569,172.137L474.75,165.577C478.384,163.998 488.501,164.494 498.117,167.839C506.606,170.793 513.802,176.459 516.345,179.809C521.506,187.552 519.411,198.029 511.668,203.191C504.526,207.952 495.057,206.538 489.58,200.212ZM484.597,194.585C484.856,194.528 485.081,194.473 485.25,194.423L484.597,194.585ZM488.434,198.731C488.384,198.659 488.335,198.587 488.287,198.514C488.325,198.58 488.375,198.653 488.434,198.731Z" style="fill:rgb(255,254,204);"/>
            </g>
        </g>
        <g transform="matrix(0.836133,0,0,0.836133,-342.42,17.7894)">
            <g transform="matrix(1.19598,0,0,1.19598,337.587,14.0804)">
                <path d="M940.974,235.655C941.706,237.058 942.383,238.452 942.954,239.831C942.338,238.391 941.618,237.006 940.974,235.655ZM993.114,154.554C992.75,154.299 992.388,154.042 992.03,153.781C992.39,154.04 992.751,154.298 993.114,154.554ZM616.244,161.472C616.305,159.503 616.603,157.506 616.904,155.509C616.746,157.521 616.596,159.535 616.244,161.472ZM916.271,291.69C915.927,290.987 915.619,290.284 915.392,289.579L916.271,291.69ZM919.272,298.891L916.271,291.69C917.445,294.088 919.035,296.479 919.272,298.891ZM616.904,155.509C617.058,153.562 617.218,151.616 617.578,149.747C617.49,151.652 617.195,153.581 616.904,155.509ZM1020.52,172.916C1011.83,166.277 1002.07,160.88 993.114,154.554C1002.1,160.831 1012.84,165.343 1020.52,172.916ZM378.782,918.289C378.645,916.307 378.74,911.915 378.923,908.736C379.899,891.836 385.186,847.56 384.637,816.891C384.498,809.079 381.208,801.288 376.886,794.787C374.239,790.807 368.832,789.63 364.806,787.056L375.562,867.728C370.188,842.861 369.247,816.595 359.441,793.12C356.754,786.686 345.895,788.568 340.604,784.031C336.78,780.75 333.894,775.768 333.377,770.753C332.12,758.573 331.327,746.348 330.744,734.103C332.05,747.628 333.973,761.089 337.452,774.175C338.695,778.854 343.151,782.941 347.768,784.387C355.793,786.901 365.913,780.73 372.978,785.294C380.823,790.357 386.053,800.32 386.864,809.617C389.953,845.018 382.98,880.682 384.399,916.185C384.536,919.613 388.349,922.181 391.423,923.694C394.186,925.058 397.81,925.388 400.65,924.198C410.333,920.124 418.812,913.637 427.894,908.359L456.57,943.021C457.705,939.788 457.705,939.788 458.839,936.554C461.402,937.684 461.402,937.684 463.965,938.82C463.461,934.537 463.461,934.537 462.956,930.248C465.94,933.818 465.94,933.818 468.923,937.388C468.629,931.801 468.629,931.801 468.335,926.215L473.713,931.593L475.057,919.828C476.99,921.354 476.99,921.354 478.923,922.874C477.662,915.472 477.662,915.472 476.402,908.064L485.015,915.23C483.153,909.368 479.512,903.795 479.427,897.643C479.164,878.571 482.466,859.62 483.986,840.608C487.242,840.252 490.913,837.906 493.754,839.533C496.998,841.393 499.399,844.307 501.7,847.347C502.867,847.699 503.089,847.765 504.637,848.232L502.62,840.165C505.298,840.682 505.298,840.682 507.977,841.193C507.988,837.657 507.988,837.657 507.998,834.114C511.034,836.655 511.034,836.655 514.07,839.197C514.396,834.303 514.396,834.303 514.721,829.408L518.755,837.476C519.623,836.232 521.445,835.25 521.36,833.738C519.521,800.965 513.06,768.447 513.04,735.627C513.032,720.75 517.353,706.115 521.276,691.762C523.905,682.142 527.834,672.831 532.599,664.073C534.857,659.921 537.593,655.03 542.074,653.527C548.149,651.489 555.599,651.477 561.275,654.451C565.837,656.842 567.686,662.799 569.174,667.728C572.511,678.781 573.432,690.417 575.561,701.759L578.586,694.283L582.998,697.12L583.292,689.577L587.326,696.3C588.53,694.646 590.939,693.389 590.939,691.338C590.939,686.128 588.53,681.201 587.326,676.132L595.057,685.544L592.704,666.72L600.225,685.167C598.418,672.535 598.418,672.535 596.611,659.906L600.152,664.438C600.28,659.636 601.11,655.244 601.152,650.438C603.083,667.985 604.502,689.294 602.095,706.827C601.516,711.036 596.273,713.651 592.2,714.868C587.206,716.36 580.159,718.229 576.569,714.451C568.559,706.021 566.709,693.389 561.78,682.854C554.497,697.644 545.954,711.876 539.931,727.224C533.288,744.152 525.747,761.274 523.901,779.365C521.468,803.217 531.481,827.607 527.284,851.217C525.931,858.827 515.834,862.141 508.671,865.039C505.193,866.444 500.439,865.657 497.557,863.25C494.306,860.541 494.21,855.479 492.536,851.593C492.536,851.593 490.249,902.36 488.503,916.803C487.606,924.214 484.872,933.296 482.057,938.251C479.863,942.113 474.688,944.504 471.616,946.532C469.145,948.163 465.706,949.585 463.629,950.416C462.202,950.988 459.153,951.522 459.153,951.522C459.153,951.522 453.749,969.495 451.385,975.684C449.662,980.192 444.965,988.66 444.965,988.66L438.141,991.104L422.021,970.626C422.021,970.626 417.018,959.986 415.459,956.622C414.508,954.572 413.315,951.888 412.664,950.444C412.291,949.617 411.923,948.788 411.552,947.961C411.001,946.728 409.355,943.05 409.355,943.05C409.468,942.233 401.239,933.61 397.264,931.796C393.542,930.097 388.033,927.712 386.063,926.775C385.803,926.651 385.651,926.374 385.445,926.173C385.09,925.828 384.436,925.191 383.932,924.7C382.982,923.776 380.603,921.694 379.745,920.625C379.217,919.968 378.84,919.129 378.782,918.289ZM330.744,734.103C330.112,727.555 329.625,720.993 329.175,714.451C328.385,702.939 328.491,691.36 328.721,679.778C329.481,697.874 329.883,716.01 330.744,734.103ZM328.721,679.778C327.846,658.968 326.499,638.21 323.434,617.628C321.528,604.826 308.369,595.823 305.457,583.212C301.898,567.795 302.235,551.409 304.533,535.755C311.017,491.583 325.313,448.788 331.676,404.599C332.09,401.722 331.907,398.838 331.448,395.951C333.065,398.972 335.084,401.9 334.617,405.124C327.294,455.653 313.065,505.018 305.73,555.544C304.367,564.936 305.652,574.866 308.671,583.863C312.781,596.111 324.734,605.387 326.739,618.149C329.929,638.471 329.129,659.131 328.721,679.778ZM331.448,395.951C330.542,394.257 329.761,392.534 329.616,390.713C329.513,389.418 329.461,388.117 329.456,386.814C330.176,389.861 330.965,392.908 331.448,395.951ZM329.456,386.814C328.349,382.13 327.408,377.444 327.999,372.772C330.118,356.014 335.395,339.635 341.864,324.032C357.92,285.315 374.342,246.496 395.394,210.251C406.745,190.709 422.702,174.096 438.398,157.835C447.741,148.156 459.532,141.183 470.099,132.857C462.494,131.218 462.494,131.218 454.889,129.579L459.595,135.63C458.013,135.322 456.066,135.762 454.848,134.705C449.148,129.766 441.663,125.353 439.427,118.151C435.324,104.937 434.758,90.4 436.843,76.722C438.238,67.574 443.362,58.933 449.511,52.017C457.235,43.329 467.789,37.617 477.41,31.092C479.943,29.375 483.012,28.627 485.813,27.395C470.548,41.905 449.777,52.262 440.015,70.924C433.509,83.363 438.614,99.196 441.024,113.025C441.832,117.667 444.831,123.095 449.343,124.453C462.861,128.525 477.913,124.5 491.528,128.235C497.338,129.829 500.771,135.966 505.393,139.831C504.679,135.378 504.679,135.378 503.965,130.924L521.444,141.008L522.116,130.924L525.477,141.008L520.099,143.025C525.029,146.834 528.933,152.625 534.889,154.453C537.919,155.383 540.231,149.777 543.376,150.168C552.448,151.293 560.743,155.882 569.427,158.739C569.637,151.891 569.637,151.891 569.847,145.042C572.536,150.644 572.492,158.812 577.914,161.848C585.367,166.022 594.944,163.193 603.46,163.865C600.267,165.84 600.267,165.84 597.074,167.815C601.808,171.372 605.569,176.904 611.275,178.487C614.82,179.47 618.166,175.91 621.611,174.621L605.477,169.915C608.39,169.019 612.648,169.84 614.216,167.226C615.279,165.456 615.873,163.507 616.244,161.472C616.189,163.218 616.319,164.943 616.798,166.627C617.56,169.311 621.408,169.771 623.712,171.344C626.695,168.276 626.695,168.276 629.678,165.209C633.303,169.492 636.023,174.94 639.56,179.335C630.027,179.507 628.323,182.569 637.746,188.739C638.449,185.365 633.261,185.589 632.368,182.016L640.435,184.705L640.435,180.379C642.259,182.466 644.318,184.25 646.821,185.462C654.184,189.024 663.179,185.406 671.359,185.377L674.72,175.966C673.712,179.439 674.597,184.227 671.695,186.386C668.297,188.914 663.264,187.212 659.048,187.626C664.519,189.638 669.797,192.461 675.234,194.617C673.631,195.43 671.731,196.687 668.67,197.142C666.482,197.468 663.759,195.531 661.275,195.461C660.73,192.954 660.216,193.021 657.914,192.1C658.201,200.655 665.251,198.724 670.687,200.083C673.803,200.862 674.6,202.832 678.082,201.848C681.319,200.932 680.301,198.465 682.787,197.478C682.615,197.273 682.447,197.077 682.284,196.892C683.528,197.184 684.787,197.413 686.065,197.562C688.784,197.881 689.706,193.473 691.527,191.428L704.3,204.201L696.905,208.235C700.623,214.068 703.245,220.766 708.058,225.734C710.492,228.245 714.518,228.409 717.745,229.747C710.539,222.462 710.539,222.462 703.332,215.178C709.53,216.076 709.53,216.076 715.729,216.974L709.678,212.268L713.039,202.184C715.681,206.12 716.939,211.479 720.959,213.99C724.831,216.409 730.021,215.084 734.552,215.629L725.813,220.671C727.661,223.402 727.661,223.402 729.51,226.134C736.065,224.243 736.065,224.243 742.619,222.352C737.443,225.083 737.443,225.083 732.26,227.814C733.745,230.797 733.745,230.797 735.224,233.781C731.715,233.145 731.715,233.145 728.206,232.508C731.883,238.691 731.883,238.691 735.56,244.873L740.602,226.386C744.596,229.376 747.607,234.924 752.575,235.356C759.204,235.933 765.207,231.169 771.527,229.075L765.476,234.453C767.661,235.755 769.51,238.04 772.031,238.36C774.969,238.733 777.799,237.044 780.683,236.386C778.458,232.731 778.458,232.731 776.232,229.075C779.876,231.617 782.727,236.377 787.157,236.701C792.992,237.128 797.96,231.529 803.795,231.092C805.772,230.943 806.706,233.781 808.165,235.125L794.72,239.159L817.241,237.142C818.807,241.288 818.619,246.651 821.947,249.579C825.032,252.294 830.014,251.147 834.047,251.932L824.636,244.537L827.325,239.159C831.782,243.957 835.001,250.551 839.82,254.821C835.52,251.988 827.945,256.15 822.955,252.94C820.663,251.464 820.192,249.755 818.585,247.226L817.241,250.587C814.222,248.152 815.99,248.897 811.863,248.57L814.552,244.537C812.898,244.681 794.142,240.929 796.064,246.89C796.958,249.658 803.641,249.855 804.468,246.554C805.342,253.908 815.694,252.681 817.241,257.31L821.274,255.293C818.868,266.972 835.116,255.683 838.753,257.982C836.239,258.244 839.15,257.707 835.473,260.755C834.162,261.847 831.526,259.774 829.826,260.798C824.965,263.722 835.15,266.345 835.392,266.386C840.326,267.216 843.385,265.255 846.504,261.512C844.602,258.972 846.088,260.279 840.77,259.999L842.531,259.159C842.121,257.547 841.504,256.396 840.731,255.584C841.967,256.56 843.311,257.38 844.804,257.982C851.331,260.615 858.699,255.742 865.644,254.621L843.459,267.394L863.627,264.033L858.249,268.066L871.694,273.444C870.988,265.707 867.614,257.749 869.57,250.23C871.862,241.461 879.056,234.782 883.795,227.058C879.923,237.107 872.313,246.437 872.178,257.205C872.071,265.481 879.472,272.065 883.123,279.495L876.4,250.251L883.795,255.965L881.106,241.848L899.929,271.428C895.674,262.464 888.508,254.367 887.156,244.537C886.175,237.382 891.304,230.7 893.375,223.781C889.59,224.747 889.59,224.747 885.812,225.713C884.689,222.128 881.355,218.55 882.451,214.957C883.674,210.957 890.625,210.515 891.694,206.47C893.395,200.013 888.414,193.011 889.953,186.512C890.921,182.419 895.708,180.378 898.585,177.31C896.158,182.324 891.701,186.795 891.298,192.352C890.901,197.821 897.59,202.66 896.36,208.003C895.21,212.999 888.951,215.09 885.247,218.634C886.874,220.829 886.874,220.829 888.501,223.024L892.535,214.285L897.16,223.865C897.63,219.484 897.63,219.484 898.101,215.104C901.402,219.537 906.484,223.088 907.997,228.403C909.96,235.3 907.997,242.744 907.997,249.915L902.202,224.6C899.916,228.374 894.753,231.553 895.351,235.924C896.649,245.507 903.331,253.543 907.324,262.352L897.913,253.949C899.257,259.327 899.466,265.124 901.946,270.083C902.84,271.876 905.529,271.876 907.324,272.772L905.308,264.033C909.805,268.276 909.805,268.276 914.302,272.52C913.502,266.931 913.502,266.931 912.703,261.344L928.837,276.806L905.308,274.117L918.753,285.545C910.054,286.926 900.467,289.52 891.862,284.873C888.306,282.953 887.378,278.15 885.14,274.789C887.156,279.663 887.338,285.805 891.183,289.412C895.183,293.158 901.496,293.109 906.652,294.957L894.551,301.007L910.686,303.024L909.341,310.419C912.588,307.282 917.832,305.345 919.089,301.007C919.294,300.3 919.341,299.594 919.272,298.891L922.114,305.713C924.622,304.116 924.622,304.116 927.136,302.52C922.605,289.663 922.605,289.663 918.081,276.806C920.097,277.254 923.264,276.277 924.131,278.15C927.129,284.601 926.988,292.086 928.42,299.054L933.543,296.638L927.492,278.822L935.828,296.18L936.904,287.562L940.602,293.612C942.087,291.036 945.146,288.854 945.052,285.881C944.924,281.511 941.677,277.814 939.99,273.78C936.864,274.789 936.864,274.789 933.731,275.797L934.968,285.587L923.459,258.654L932.427,273.508L945.644,270.083L946.316,285.545L949.677,272.1L955.472,274.662C953.697,268.634 953.697,268.634 951.923,262.604C950.8,267.016 950.8,267.016 949.677,271.428C946.699,266.795 946.699,266.795 943.714,262.163C941.402,264.862 941.402,264.862 939.089,267.562C934.968,258.066 934.968,258.066 930.854,248.57L947.996,261.344C947.869,258.038 950.04,253.677 947.62,251.428C941.361,245.626 931.217,245.455 924.803,239.831C922.699,237.984 924.803,234.229 924.803,231.428L929.509,241.176C931.584,240.657 933.724,239.136 935.779,238.933C931.637,236.627 935.437,231.35 928.501,231.764C928.346,229.255 929.408,226.833 928.669,224.369C927.607,220.828 924.131,218.835 924.131,214.957C924.716,215.793 926.84,220.023 928.985,220.44C935.775,221.766 923.055,207.538 925.812,203.865C932.608,209.3 932.487,224.565 940.938,225.041C938.054,228.613 939.238,232.012 940.974,235.655C938.193,230.328 934.605,224.872 932.87,219.663C930.605,221.702 931.566,223.049 930.181,225.713C933.649,227.693 935.624,234.656 936.199,238.911C936.664,238.908 937.123,238.982 937.576,239.159C940.971,240.488 942.504,244.537 944.971,247.226L944.299,239.831L948.333,247.898L942.954,223.697L953.038,234.453C942.733,217.87 933.765,200.376 922.114,184.705C920.911,183.086 918.081,184.705 916.064,184.705L918.081,193.445C913.556,185.335 910.141,176.395 908.669,167.226C913.731,174.947 913.731,174.947 918.793,182.668C916.42,174.947 916.42,174.947 914.047,167.226C922.659,181.302 922.659,181.302 931.27,195.377C934.76,194.411 934.76,194.411 938.249,193.445C929.092,176.512 929.092,176.512 919.929,159.579C915.647,162.058 915.647,162.058 911.358,164.537C913.039,162.037 913.644,158.253 916.4,157.037C923.499,153.907 931.418,152.251 939.176,152.268C947.539,152.287 958.316,150.82 963.795,157.142C968.821,162.941 969.745,170.897 970.644,178.866L976.568,188.739C975.149,187.944 971.949,183.466 970.844,180.623C971.243,184.087 971.694,187.523 972.534,190.756L965.812,177.983L949.005,190.083C943.418,180.462 943.418,180.462 937.832,170.84C944.091,178.445 944.091,178.445 950.349,186.05C954.746,181.988 961.22,179.382 963.539,173.865C965.301,169.692 961.919,164.957 961.106,160.504L957.744,171.932C952.252,166.246 947.929,159.139 941.274,154.873C938.538,153.119 934.773,155.041 931.526,155.126L936.232,165.209L930.181,155.462C926.403,157.037 926.403,157.037 922.618,158.613C930.793,171.694 941.065,184.412 944.299,199.495L937.576,195.798C936.904,198.206 934.645,200.696 935.56,203.024C937.381,207.658 941.832,210.756 944.971,214.621L953.038,208.907C951.465,213.137 948.111,217.087 948.312,221.596C948.46,224.876 952.077,226.974 953.966,229.663C954.175,224.663 954.175,224.663 954.383,219.663L960.433,224.369C959.008,227.058 955.472,229.467 956.144,232.436C956.674,234.757 957.989,236.725 959.547,238.584C959.327,240.458 959.702,240.832 961.778,242.52C961.728,241.898 961.696,241.387 961.658,240.95C962.891,242.288 964.129,243.625 965.153,245.058C967.835,240.763 967.835,240.763 970.517,236.47C968.245,243.402 968.245,243.402 965.98,250.335L975.223,251.26L976.568,261.344C982.746,256.764 982.746,256.764 988.924,252.184C986.369,250.531 982.699,249.908 981.274,247.226C979.801,244.456 981.274,240.952 981.274,237.814L983.963,243.865C987.001,241.669 987.001,241.669 990.033,239.474C988.111,232.821 986.437,225.607 981.946,220.335L983.963,229.747L972.534,234.453L982.201,216.638L974.215,222.352C971.902,219.758 971.902,219.758 969.59,217.163C967.028,222.111 967.028,222.111 964.467,227.058L957.744,209.579L967.492,217.31L971.629,200.982C972.408,203.383 975.971,206.391 975.896,207.562C975.506,213.853 972.09,212.725 975.223,218.991C978.45,216.569 976.837,214.577 975.687,210.924C976.124,210.587 976.124,210.587 976.568,210.251C977.892,212.743 976.911,211.934 979.385,212.836C981.348,209.324 978.047,195.732 972.702,198.403C972.512,198.498 972.346,198.601 972.204,198.71L973.879,192.1C983.707,214.285 983.707,214.285 993.543,236.47C994.383,232.996 997.253,229.418 996.064,226.05C992.245,215.268 984.857,206.105 979.257,196.134L985.307,194.789C987.405,202.268 987.405,202.268 989.509,209.747C992.783,207.982 992.783,207.982 996.064,206.218C991.055,200.294 991.055,200.294 986.04,194.369C989.038,193.571 989.038,193.571 992.03,192.772C990.101,188.907 987.116,185.407 986.235,181.176C985.879,179.495 987.855,178.151 988.669,176.638L993.374,182.184C992.312,177.016 992.312,177.016 991.25,171.848C995.465,181.103 995.465,181.103 999.68,190.356L998.753,172.604C1003.36,182.846 1003.36,182.846 1007.98,193.088C1008.74,189.232 1008.74,189.232 1009.51,185.377L1014.81,193.486L1016.9,183.361L1020.94,209.579L1022.28,188.739C1024.88,195.031 1024.88,195.031 1027.47,201.323C1029.92,200.409 1029.92,200.409 1032.37,199.495L1029.01,225.041C1031.42,221.477 1036.69,218.637 1036.27,214.348C1035.01,201.431 1031.98,187.77 1024.32,177.289C1023.17,175.716 1021.9,174.268 1020.52,172.916C1023.69,175.336 1026.72,177.921 1029.51,180.776C1034.85,186.235 1037.31,194.206 1038.88,201.68C1040.41,209.028 1040.43,216.923 1038.58,224.201C1036.06,234.181 1032.41,244.342 1026.03,252.419C1021.77,257.807 1012.96,257.768 1008.16,262.688C997.381,273.757 991.519,289.17 980.097,299.579C968.675,309.987 954.82,317.693 940.77,324.116C920.857,333.218 898.276,335.883 878.793,345.881C857.758,356.678 838.572,370.993 820.266,385.965C790.048,410.687 756.098,432.831 733.544,464.704C718.418,486.082 716.67,514.418 711.251,540.04C708.045,555.223 707.05,570.968 707.809,586.468C709.053,611.955 717.692,636.922 717.241,662.434C717.039,673.866 712.697,685.617 705.9,694.807C701.745,700.414 693.208,700.609 686.863,703.506C681.058,697.214 668.819,692.989 669.152,684.438C670.311,654.671 680.203,611.768 684.152,598.438C691.153,574.81 696.997,560.333 695.152,538.438C693.113,514.235 689.856,495.221 682.571,500.438C669.191,510.016 623.883,562.601 607.494,603.527C605.33,608.929 603.609,625.162 602.474,638.438C601.845,645.795 602.484,672.356 601.152,670.438C596.116,663.183 602.214,600.132 603.628,585.46C605.002,571.203 608.975,557.242 613.376,543.611C616.273,534.638 619.356,525.24 625.407,518.008C636.442,504.818 649.787,493.536 663.712,483.443C667.711,480.545 673.142,479.864 678.082,479.83C681.733,479.805 687.581,479.737 688.481,483.275C690.527,491.319 700.862,535.954 696.152,554.438C683.703,603.298 680.051,616.476 672.152,664.438C671.254,669.89 671.405,683.194 673.152,688.438C673.961,690.864 677.885,688.965 680.098,690.249L677.409,669.409L679.426,674.787L688.27,672.918L688.166,662.686L690.855,671.426C692.255,670.727 694.724,670.854 695.056,669.328C696.004,664.964 694.496,660.418 694.216,655.964C696.905,663.149 696.905,663.149 699.594,670.337C700.045,665.207 699.211,659.801 700.939,654.955C701.476,653.446 704.018,654.073 705.564,653.632C698.646,645.074 707.493,631.671 707.325,620.67C707.117,607.218 701.671,594.221 701.214,580.775C700.683,565.335 700.999,549.609 704.381,534.536C711.117,504.571 719.668,474.838 731.379,446.448C737.443,431.754 747.446,418.904 757.241,406.385C764.952,396.526 774.834,388.57 783.627,379.662L777.577,382.351C781.524,375.754 786.536,369.463 792.819,365.027C792.86,364.748 792.932,364.472 793.039,364.2C793.953,361.886 797.073,361.287 799.09,359.831L797.745,368.234C799.54,367.338 802.518,367.455 803.123,365.545C804.347,361.695 802.673,357.478 802.451,353.444L804.468,363.528C806.632,362.698 806.632,362.698 808.797,361.868L808.501,350.755L813.207,359.494C814.861,358.766 817.597,359.023 818.168,357.31C819.426,353.535 817.994,349.355 817.913,345.377L821.274,354.116C823.177,353.332 826.336,353.718 826.989,351.763C828.441,347.404 826.767,342.575 826.652,337.982C829.086,343.36 829.086,343.36 831.526,348.738C832.111,343.024 832.111,343.024 832.703,337.31L837.409,342.688L864.299,307.058L843.459,340.671C844.918,340.111 846.908,340.251 847.829,338.99C860.165,322.094 871.123,304.229 882.766,286.848C879.298,283.164 877.2,277.296 872.367,275.797C861.267,272.351 848.797,276.035 837.617,272.835C822.215,268.425 809.382,256.601 793.711,253.276C774.229,249.144 753.328,255.685 734.007,250.86C726.942,249.098 725.093,239.134 719.318,234.705C714.404,230.934 707.285,230.698 702.539,226.722C696.41,221.595 694.771,211.361 687.493,208.066C672.344,201.209 654.417,203.158 638.67,197.814C618.641,191.017 601.268,177.07 580.771,171.848C565.507,167.96 548.419,176.151 533.524,171.029C522.677,167.3 518.478,153.25 508.797,147.1C500.355,141.738 490.423,137.836 480.435,137.31C472.258,136.88 463.21,139.144 456.906,144.369C438.151,159.915 420.524,177.562 407.242,197.982C384.924,232.298 367.509,269.694 351.024,307.163C342.267,327.066 337.177,348.43 331.78,369.494C330.338,375.122 329.431,380.989 329.456,386.814ZM639.56,179.335C639.845,179.33 640.136,179.327 640.435,179.327L640.435,180.379C640.137,180.039 639.846,179.69 639.56,179.335ZM675.234,194.617C677.412,193.511 679.04,193.225 682.284,196.892C679.887,196.33 677.546,195.534 675.234,194.617ZM839.82,254.821C840.143,255.034 840.447,255.286 840.731,255.584C840.421,255.339 840.117,255.085 839.82,254.821ZM959.547,238.584C959.595,238.181 959.67,237.71 959.761,237.142C961.296,238.679 961.512,239.248 961.658,240.95C960.938,240.168 960.22,239.386 959.547,238.584ZM971.629,200.982C971.344,200.104 971.431,199.307 972.204,198.71L971.629,200.982ZM565.141,290.923C566.252,294.195 562.75,297.409 561.611,300.671C558.054,310.862 555.593,321.429 551.737,331.511C548.884,338.973 545.134,346.065 541.528,353.192C536.137,363.846 517.559,378.151 517.851,356.175C518.135,334.746 529.85,316.253 532.515,295.566C533.303,289.448 524.857,288.04 526.293,280.759C527.603,274.116 543.934,245.585 550.351,249.915C541.734,258.64 531.284,268.135 529.847,281.175C529.391,285.315 534.12,288.778 535.393,291.68C537.85,297.276 535.02,299.502 533.376,304.957C528.12,322.403 522.165,339.094 521.023,357.289C520.138,371.402 534.348,360.638 537.431,354.536C541.995,345.502 546.295,336.331 550.351,327.058C555.616,315.019 558.5,302.387 565.141,290.923ZM743.291,354.789C721.013,348.719 742.344,320.761 748.67,308.402C751.863,311.142 740.038,330.876 738.249,336.385C733.06,352.393 745.53,345.886 746.397,352.099C747.661,361.043 740.582,368.374 743.628,377.309C754.707,373.616 754.639,353.26 763.459,352.099C762.464,361.512 755.507,373.295 748.67,379.662C738.512,389.125 738.781,370.185 739.91,365.671C740.831,361.986 742.162,358.416 743.291,354.789ZM436.066,557.141C449.82,553.348 453.662,565.748 456.675,578.275C461.929,600.117 458.948,624.634 453.881,646.216C452.292,652.983 448.747,669.066 441.024,671.843C432.179,675.029 432.537,668.784 430.604,662.855C428.611,656.74 426.294,650.701 423.414,644.952C420.867,639.87 409.242,645.151 403.482,634.388C400.813,629.401 401.774,624.896 403.041,619.745C407.375,602.121 416.963,562.408 436.066,557.141ZM407.074,628.18C406.281,627.158 405.576,626.455 405.142,626.384C405.929,631.105 405.892,636.892 411.864,637.14C411.801,635.925 410.046,632.538 408.288,629.885C407.776,629.363 407.379,628.791 407.074,628.18ZM408.288,629.885C409.362,630.985 410.939,631.867 413.209,632.434C413.868,625.544 411.464,623.673 408.503,616.972C410.243,619.756 411.562,622.199 414.553,623.695C417.139,613.645 417.876,611.016 411.192,602.855C409.466,609.759 410.06,612.312 413.881,618.317C410.755,616.804 410.257,612.611 407.158,612.266C407.796,616.7 404.76,623.548 407.074,628.18C407.464,628.684 407.876,629.264 408.288,629.885ZM437.41,562.519C440.93,563.366 441.681,571.149 445.287,570.674C451.531,569.853 444.484,556.462 435.394,560.502C428.811,563.428 437.467,572.274 438.083,575.964C434.46,572.824 433.222,569.676 431.36,565.208C428.471,566.694 427.999,566.389 427.999,569.241C417.785,569.561 425.506,582.886 427.999,586.72C430.804,584.281 432.032,583.654 432.032,579.998C428.693,579.081 428.016,572.413 427.326,570.586C430.926,574.035 430.766,577.684 435.394,579.998C436.489,577.429 439.347,576.052 441.36,574.115C444.051,571.527 437.983,565.955 437.41,562.519ZM420.604,579.325C417.649,579.505 419.146,582.515 420.793,584.556C422.048,586.113 422.403,588.218 423.272,590.019C426.762,597.259 428.015,578.874 420.604,579.325ZM439.427,609.577C434.607,615.274 435.066,624.869 434.721,631.762C436.303,626.225 441.85,615.635 439.427,609.577ZM452.872,623.023C451.303,627.339 450.068,630.072 451.528,634.451C452.98,629.917 454.575,627.28 452.872,623.023ZM427.326,625.04C424.762,624.519 427.026,628.834 426.486,631.342C422.816,648.382 437.129,627.029 427.326,625.04ZM419.931,630.418C420.074,633.757 420.215,633.759 423.293,635.124C423.856,631.976 422.552,631.728 419.931,630.418ZM451.528,635.796C447.748,640.52 446.822,646.762 446.822,652.602C451.549,650.142 452.036,640.372 451.528,635.796ZM431.36,637.813C430.911,640.509 430.721,641.88 432.704,643.863C434.06,641.151 433.178,640.085 431.36,637.813ZM435.394,583.359C431.817,587.654 428.233,590.695 427.326,596.132C432.18,594.363 432.14,587.769 436.738,584.704L435.394,583.359ZM418.587,584.704C409.029,597.843 427.999,603.975 421.276,590.082C420.403,588.277 419.766,583.083 418.587,584.704ZM438.083,586.72L434.721,592.771C438.14,591.195 438.083,590.24 438.083,586.72ZM414.889,594.115C411.572,597.764 413.968,606.693 418.587,608.233C419.73,603.089 419.345,597.679 414.889,594.115ZM446.15,596.132L445.478,602.183L447.494,602.183C447.494,599.863 447.728,597.95 446.15,596.132ZM445.478,603.527L444.133,615.628C448.581,615.048 449.443,604.849 445.478,603.527ZM444.133,657.981C442.319,659.069 439.122,663.627 439.322,665.46C443.627,666.208 445.266,661.38 444.133,657.981ZM439.427,658.653C436.334,658.653 436.524,660.626 436.066,663.359C438.801,661.405 439.427,661.583 439.427,658.653ZM362.789,559.157C361.393,559.392 356.379,560.869 354.385,559.494C349.92,556.411 356.36,530.124 357.411,524.872C362.683,528.261 355.964,546.593 356.045,553.317C356.172,563.797 365.015,549.863 366.192,557.518C368.09,569.852 363.721,582.048 366.486,594.788C367.039,597.333 370.541,606.366 374.238,600.355C378.695,593.11 382.389,585.327 387.663,578.653C384.834,585.011 382.288,591.504 379.175,597.729C367.654,620.772 362.045,589.459 361.99,580.922C361.944,573.662 362.523,566.413 362.789,559.157ZM435.394,294.285C443.283,286.979 453.276,276.919 465.436,279.621C469.059,280.426 473.276,281.079 475.729,283.864C478.889,287.452 480.392,292.477 480.94,297.226C482.579,311.433 477.453,317.335 473.629,330.251C470.794,339.825 469.271,349.978 464.637,358.822C462.704,362.512 459.532,365.441 457.494,369.074C446.111,389.371 436.341,409.799 429.595,432.183C426.96,440.929 425.137,449.965 424.217,459.053C422.29,478.084 427.486,498.697 419.952,516.28C413.731,530.801 402.356,535.575 388.335,532.267L386.99,534.956C383.629,527.785 379.175,521.031 376.906,513.443C376.35,511.584 379.019,509.92 378.923,507.981C378.547,500.343 375.856,492.933 375.52,485.292C374.65,465.548 376.176,445.554 380.058,426.175C384.953,401.737 390.688,377.43 397.747,353.528C400.368,344.652 404.464,336.212 409.007,328.15C414.283,318.787 423.45,310.92 425.31,300.335L427.326,303.024C430.73,299.195 432.489,296.786 432.704,291.596L435.394,294.285ZM387.663,411.931C383.725,411.931 384.099,418.08 383.545,421.007C382.295,427.617 381.27,434.27 380.268,440.923C378.888,450.085 381.3,452.611 386.318,460.334C390.537,455.444 387.374,449.23 384.974,444.2C391.25,451.522 387.557,441.093 385.646,438.15L391.024,440.839C391.024,434.368 388.141,431.938 386.318,426.049C389.858,430.613 387.813,429.801 391.171,430.523C394.406,421.159 391.709,420.236 387.663,411.931ZM387.663,411.931C389.457,414.148 391.091,416.858 393.713,417.982C393.865,414.179 395.058,411.656 395.058,407.898C391.655,407.063 390.162,401.219 389.007,399.158C385.707,403.283 387.428,405.186 387.663,411.931ZM394.742,404.431C399.142,399.194 397.514,391.133 391.696,387.393C388.617,393.937 390.382,399.289 394.742,404.431ZM422.62,387.057C421.063,389.133 420.604,390.513 420.604,393.108C422.911,391.336 422.62,389.828 422.62,387.057ZM414.553,393.78C412.417,398.052 411.826,399.664 412.536,404.536C415.351,401.722 414.973,397.345 414.553,393.78ZM411.192,408.57C409.224,411.915 408.704,416.286 407.831,419.998C410.729,417.703 412.904,411.994 411.192,408.57ZM401.78,410.587C396.065,419.119 396.167,433.094 395.73,442.855C397.778,442.172 402.109,414.581 401.78,410.587ZM425.31,413.948C423.238,418.3 423.093,423.002 422.62,427.729C423.89,425.37 426.45,416.799 425.31,413.948ZM449.175,287.226C442.23,286.003 441.859,296.621 447.494,297.646C454.255,298.876 454.793,288.215 449.175,287.226ZM448.839,353.444C445.781,356.971 443.461,362.146 443.461,366.889C446.625,364.013 449.484,357.955 448.839,353.444ZM440.772,371.595C439.014,375.11 439.67,373.312 438.755,376.973C440.689,375.039 441.571,374.335 440.772,371.595ZM437.41,342.015C434.453,344.973 434.464,347.946 434.049,352.099C438.191,349.938 437.344,346.502 437.41,342.015ZM443.797,346.721C439.422,350.805 438.595,357.89 438.083,363.528C441.992,362.08 446.136,350.621 443.797,346.721ZM402.452,350.083C400.9,352.095 400.619,354.84 400.016,357.31C397.498,367.608 385.407,384.382 398.755,391.427C402.772,385.804 397.074,379.008 397.074,372.94L401.108,381.679C405.873,372.634 404.33,369.416 400.436,360.167C401.745,362.099 402.976,364.087 404.364,365.965C406.978,369.5 409.711,367.346 409.175,363.528C408.551,359.084 403.642,352.206 402.452,350.083ZM430.688,352.772C425.89,356.697 425.551,365.441 424.637,370.923C429.28,368.296 432.331,357.701 430.688,352.772ZM406.486,436.133C403.931,442.775 403.125,447.833 403.125,454.956C407.968,453.407 406.819,440.125 406.486,436.133ZM423.293,317.814C431.059,330.975 432.512,309.074 424.889,309.074C422.535,309.074 422.353,314.041 422.032,314.957C421.48,316.531 418.156,317.981 417.116,319.431C412.881,325.342 415.872,330.647 420.94,335.293C426.583,331.262 424.339,323.398 423.293,317.814ZM460.604,338.99C456.843,343.587 455.494,350.134 453.545,355.461C457.512,353.056 463.849,343.453 460.604,338.99ZM442.116,293.276C434.573,295.885 437.604,300.073 440.099,303.696C444.343,300.665 445.562,297.706 442.116,293.276ZM458.251,315.797C455.381,320.961 454.54,324.576 453.545,330.587C456.999,327.731 460.429,320.153 458.251,315.797ZM449.175,326.553C447.297,328.744 448.133,327.303 447.494,331.259L450.183,327.226L449.175,326.553ZM413.545,327.226C406.916,329.495 407.131,342.61 413.608,347.246C416.961,349.647 418.261,337.302 417.514,335.424C416.508,332.896 416.116,326.346 413.545,327.226ZM474.385,286.217C467.426,288.537 462.439,279.101 454.217,284.537C448.902,288.051 455.873,292.94 459.595,292.94L459.595,288.906C461.743,291.591 470.351,294.607 470.351,288.906C472.507,291.311 472.819,291.686 475.729,292.268L474.385,286.217ZM462.284,296.301C459.339,295.712 458.421,296.266 456.234,298.318C459.676,298.116 460.624,298.791 462.284,296.301ZM476.717,296.449C473.168,298.466 473.444,306.217 475.729,309.074C478.022,305.635 477.912,300.253 476.717,296.449ZM471.696,298.318C469.32,297.843 470.557,297.801 467.998,298.654C468.671,301.248 468.034,299.933 470.351,302.352L471.696,298.318ZM435.057,299.327C430.994,298.357 424.427,308.385 431.297,311.133C438.594,314.053 438.921,300.248 435.057,299.327ZM454.994,303.591C449.992,303.415 445.478,310.572 445.478,315.125C448.113,313.946 455.576,306.184 454.994,303.591ZM406.822,337.982C399.47,343.072 404.246,356.044 411.192,358.822C413.914,351.098 411.9,344.752 406.822,337.982ZM383.629,486.553C384.157,482.332 383.562,477.917 378.923,476.133C376.755,480.468 379.087,485.417 383.629,486.553ZM397.074,485.88C396.935,489.27 396.746,492.658 396.654,496.048C396.596,498.19 396.407,499.747 398.419,500.67C399.4,496.587 401.991,488.339 397.074,485.88ZM379.595,487.225C379.097,490.719 378.927,494.97 383.629,495.292C383.629,490.829 383.644,489.249 379.595,487.225ZM395.73,444.2L393.041,466.385C399.837,463.253 399.023,449.963 395.73,444.2ZM379.595,454.284C378.418,454.143 379.495,458.677 379.743,460.271C381.129,469.183 390.616,470.147 385.646,462.141C383.754,459.093 383.059,454.699 379.595,454.284ZM403.797,458.99L404.133,465.712C406.359,463.891 407.124,459.821 403.797,458.99ZM379.595,465.712C378.647,465.47 379.131,469.745 379.238,471.175C380.38,486.393 392.699,469.062 379.595,465.712ZM392.368,472.435L390.352,489.242C393.357,485.517 395.064,476.478 392.368,472.435ZM379.595,496.637C380.346,500.387 380.385,507.964 383.629,510.754C383.605,507.557 385.571,496.969 379.595,496.637ZM394.385,521.511C394.385,526.011 394.732,526.988 399.091,528.233C399.34,524.583 399.948,524.292 397.074,522.855L397.747,524.872L396.402,524.872C395.732,521.569 396.72,522.424 394.385,521.511ZM390.352,489.914L390.352,496.301C391.493,494.507 392.327,491.275 390.352,489.914ZM515.393,622.35C520.948,626.785 516.182,635.202 518.755,641.174C520.603,645.468 525.26,640.135 526.822,638.485C530.367,634.738 542.375,615.804 545.645,615.628C545.249,620.388 540.256,623.804 537.662,627.981C534.624,632.871 525.642,651.158 516.738,644.535C515.365,643.514 515.498,638.564 515.477,637.413C515.386,632.393 515.421,627.372 515.393,622.35ZM456.906,938.316C454.228,936.527 453.884,933.966 453.545,930.921C455.35,932.904 456.009,935.848 456.906,938.316ZM581.948,350.755C589.281,349.777 593.806,341.874 600.099,337.982C606.938,333.752 610.232,334.867 617.43,335.188C613.996,346.496 619.365,347.463 629.006,350.755C626.511,345.538 623.012,340.727 618.922,336.637C627.442,339.143 633.872,347.902 636.989,356.217C639.527,362.988 640.705,370.655 639.426,377.772C638.267,384.224 633.543,389.515 630.015,395.04C618.581,412.95 605.775,429.967 594.573,448.024C582.71,467.147 573.132,488.009 567.074,509.683C561.661,529.047 559.277,549.151 554.385,568.653C548.214,593.25 534.402,602.247 512.704,588.737L516.738,587.393C511.206,574.568 509.427,560.006 509.931,546.048C511.515,502.212 524.839,456.869 541.275,416.637C548.347,399.326 558.229,383.185 568.754,367.73C571.395,363.852 582.366,355.779 581.948,350.755ZM583.292,355.461C580.352,357.421 576.984,360.558 576.569,364.2C567.063,364.609 572.074,374.939 575.225,378.99C579.988,374.227 579.195,371.892 577.242,365.545C586.598,378.021 589.22,362.376 583.292,355.461ZM624.973,360.167C623.932,356.976 619.984,356.286 617.83,359.158C619.929,360.657 622.466,360.167 624.973,360.167ZM601.443,360.167C595.277,366.807 585.038,370.533 583.292,381.007C585.154,379.766 601.535,360.442 601.443,360.167ZM612.872,362.856C610.06,363.324 609.504,364.176 610.183,366.889L612.872,362.856ZM606.149,368.234C604.894,370.43 603.274,372.381 604.132,374.957L608.166,369.578L606.149,368.234ZM599.426,375.629C595.258,379.276 592.032,384.167 592.032,389.746C595.926,387.957 600.041,379.929 599.426,375.629ZM615.561,383.696C611.095,390.733 605.52,397.641 603.46,405.881C607.802,402.263 617.094,388.297 615.561,383.696ZM539.595,528.233C539.595,532.048 537.578,534.872 537.578,538.989C541.141,538.618 540.716,530.69 540.939,528.233L539.595,528.233ZM547.662,532.267L546.317,539.662C548.93,536.788 548.668,535.789 547.662,532.267ZM542.284,512.099L541.612,519.494C545.126,519.055 544.859,513.448 542.284,512.099ZM517.074,516.132C512.845,522.711 512.75,539.697 512.158,545.754C511.732,550.115 516.099,559.648 515.897,551.174C515.806,547.334 515.561,543.499 515.393,539.662L518.082,539.662L516.738,528.905C521.871,532.832 520.462,518.674 517.074,516.132ZM550.351,523.527C547.635,526.243 547.823,528.019 548.334,531.595C550.665,527.946 551.161,527.694 550.351,523.527ZM528.166,561.174L526.822,573.275C531.247,572.942 532.175,562.511 528.166,561.174ZM539.595,562.519L538.25,573.947C540.322,571.875 543.999,563.987 539.595,562.519ZM519.427,502.015C516.581,508.062 517.665,513.783 521.444,518.821C522.685,513.03 524.164,506.752 519.427,502.015ZM530.183,506.048C525.449,515.517 525.585,528.152 524.133,538.317C527.203,536.932 532.943,510.188 530.183,506.048ZM546.317,569.914C542.051,569.914 542.123,577.58 541.612,579.998C545.934,579.998 546.317,573.207 546.317,569.914ZM519.763,576.973C516.428,584.672 523.725,589.307 529.511,590.754C530.201,586.702 526.746,587.672 524.133,585.376C521.693,583.233 521.976,579.37 519.763,576.973ZM522.116,489.914C519.104,493.93 519.023,504.793 524.805,506.721C526.341,500.576 526.802,494.99 522.116,489.914ZM561.107,444.872C556.655,448.434 551.622,469.058 550.351,473.78C555.72,470.201 561.89,451.921 561.107,444.872ZM583.964,448.906L581.948,455.628C583.361,453.303 585.768,451.281 583.964,448.906ZM530.855,454.956C528.185,458.517 529.402,460.819 528.082,465.649C526.037,473.136 516.978,489.168 527.83,494.956C531.978,490.808 528.307,483.613 526.822,479.158L531.528,483.864C534.333,474.78 533.544,474.931 528.839,465.712C530.605,467.852 532.135,470.403 534.553,471.763C540.562,466.504 534.59,459.624 530.855,454.956ZM544.973,458.99L540.939,470.418C544.59,469.011 547.362,462.403 544.973,458.99ZM558.418,425.377C556.267,428.702 555.484,433.065 554.385,436.805C556.437,434.244 560.756,428.884 558.418,425.377ZM545.645,541.679C543.366,546.858 542.709,552.995 541.612,558.485C545.947,555.233 547.233,546.442 545.645,541.679ZM528.839,543.023C527.313,547.882 522.863,560.85 525.477,565.208L526.149,559.83L528.166,560.502C529.347,556.961 532.733,545.563 528.839,543.023ZM512.032,557.141C512.166,559.426 511.329,568.111 514.721,569.241C514.962,566.105 517.077,557.496 512.032,557.141ZM606.149,339.999C610.513,341.152 609.414,348.212 613.88,349.41C620.422,351.166 615.028,339.603 610.519,338.654C604.778,337.445 596.977,342.236 592.662,345.461C590.289,347.234 586.233,350.613 585.309,353.78C583.387,360.369 592.835,366.869 595.141,357.646C595.814,354.953 594.522,351.788 594.048,349.41C601.137,360.459 602.875,353.763 600.771,346.049C607.285,356.87 612.456,352.461 606.149,339.999ZM625.645,352.772C622.551,359.94 635.874,363.819 631.023,354.116L630.351,356.805L628.334,356.805C627.957,353.983 627.988,353.944 625.645,352.772ZM567.092,381.253C566.498,380.743 565.745,380.415 564.805,380.335C560.877,379.998 560.677,388.515 559.847,390.083C559.084,391.522 556.931,391.847 556.149,393.276C551.761,401.296 545.915,408.759 545.645,417.982C535.673,418.821 545.094,433.136 547.662,436.133C553.183,429.219 548.998,427.548 546.99,419.998C550.204,425.825 548.15,423.821 552.368,426.721C557.169,415.03 551.023,420.117 551.023,409.914C561.246,426.864 559.367,401.981 557.746,396.469C559.174,398.775 562.974,403.963 564.132,401.511C565.797,397.987 561.819,394.062 560.435,390.419C562.133,392.516 563.595,394.933 565.813,396.469C567.618,394.992 569.368,389.41 568.864,385.218C567.986,384.019 567.362,382.68 567.092,381.253ZM568.864,385.218C569.345,385.876 569.902,386.492 570.519,387.057C576.635,383.722 574.371,376.499 569.174,373.612C567.177,376.244 566.64,378.871 567.092,381.253C568.12,382.137 568.666,383.57 568.864,385.218ZM539.868,437.243C538.957,435.959 537.766,434.882 536.233,434.116C535.628,443.391 527.775,455.308 538.923,461.679C539.599,455.589 537.798,452.292 534.889,446.889L536.233,446.217C537.705,449.774 538.166,452.561 541.612,454.284C542.631,449.866 543.041,443.777 540.99,439.218C540.575,438.588 540.195,437.922 539.868,437.243ZM540.99,439.218C542.37,441.316 544.136,443.024 545.645,443.528C546.953,438.296 544.726,432.853 540.603,429.074C537.941,430.516 538.316,434.026 539.868,437.243C540.304,437.858 540.676,438.52 540.99,439.218ZM616.905,184.033C618.543,188.282 622.622,188.113 626.989,189.411C624.554,185.556 621.066,185.882 616.905,184.033ZM756.34,423.255C752.051,423.533 755.224,429.571 756.064,432.099L758.081,432.099C757.086,429.11 756.307,426.422 756.34,423.255ZM794.337,371.524L794.384,371.763C794.369,371.684 794.354,371.604 794.337,371.524ZM884.467,257.31C884.682,264.015 889.173,269.064 889.173,275.461L890.518,275.461C890.518,279.263 892.864,280.289 895.896,282.184L895.896,276.806C898.511,281.591 898.82,282.154 903.963,281.512C902.242,276.952 899.822,271.146 893.879,274.117C892.548,269.776 888.642,258.979 884.467,257.31ZM984.971,258.318C980.796,260.564 977.912,262.597 977.912,266.049C981.146,265.959 988.85,263.17 984.971,258.318ZM962.45,265.377C969.186,276.599 970.874,250.725 962.45,261.344L964.467,261.344C962.168,264.351 962.403,264.695 959.089,264.033L959.761,260.671C956.689,261.754 953.711,261.793 953.711,265.377L956.4,265.377C955.6,274.802 963.465,272.485 962.45,265.377ZM978.141,293.99C974.383,294.081 969.724,298.668 969.173,302.352C970.746,301.173 977.569,297.43 978.141,293.99ZM950.349,302.352C946.323,302.352 942.033,304.185 939.593,307.058C942.988,306.572 947.371,306.863 948.333,303.024L950.349,303.696L950.349,302.352ZM959.425,305.041C956.064,306.322 950.901,308.769 949.677,312.436C953.415,311.101 960.272,310.141 959.425,305.041ZM1024.3,198.823C1023.72,201.583 1023.98,201.853 1025.64,204.201C1025.64,202.208 1026.13,200.022 1024.3,198.823ZM689.51,204.201C687.676,201.426 683.353,198.578 682.115,203.529L689.51,204.201ZM996.736,206.89L995.391,212.268L992.03,210.251C992.03,215.481 993.341,222.076 997.744,225.377C999.008,222.646 997.099,219.449 1000.77,218.991C1000.55,222.117 999.243,224.083 1002.11,225.041C1002.89,221.184 1001.97,208.199 996.736,206.89ZM1024.97,210.924C1023.32,213.837 1023.08,214.389 1023.63,217.646C1025.41,214.613 1025.52,214.177 1024.97,210.924ZM718.418,216.302L717.745,219.663C722.034,219.305 722.424,218.023 718.418,216.302ZM623.628,176.302C612.514,178.094 626.647,182.686 628.334,183.361C628.832,179.126 627.845,177.053 623.628,176.302ZM706.989,651.258C706.572,657.129 704.3,663.008 704.3,668.737L706.989,667.392C705.692,670.29 705.927,671.661 706.317,674.787C708.28,671.648 709.53,669.705 709.678,666.048L707.325,666.72C708.394,660.29 712.024,657.552 706.989,651.258ZM773.543,244.537C772.266,240.616 770.357,243.496 768.125,241.092C766.33,239.161 766.007,236.973 764.468,234.957C763.352,233.498 758.827,235.943 763.459,238.487L760.77,239.831C762.545,241.609 763.594,242.52 766.148,242.52C764.132,243.865 762.323,244.665 762.115,247.226L773.543,244.537ZM689.825,674.868C686.089,676.36 685.477,677.349 685.477,680.165C688,678.841 691.592,678.081 689.825,674.868ZM682.115,679.493C681.49,682.619 682.649,684.549 681.443,687.56C684.616,688.132 684.348,687.291 685.477,684.199C682.461,682.955 685.13,680.737 682.115,679.493ZM689.846,679.493C686.398,681.16 686.299,682.263 686.821,684.871C689.489,682.841 691.95,682.296 689.846,679.493ZM684.132,690.249L684.804,694.955L688.166,694.283C686.777,691.043 687.208,690.249 684.132,690.249ZM589.342,165.882C590.171,169.195 592.16,169.041 595.393,169.915C593.908,166.049 593.201,165.882 589.342,165.882ZM1003.46,225.041C1001.72,227.644 1000.1,233.874 1000.1,237.142C1002.55,236.932 1002.42,235.284 1002.79,233.108C1008.03,234.343 1005.92,226.886 1003.46,225.041ZM1016.9,225.041C1015.15,228.556 1015.8,226.758 1014.89,230.419C1017.57,229.077 1017.85,227.881 1016.9,225.041ZM516.738,143.697C517.315,146.008 518.203,146.981 520.099,148.403C520.748,145.157 519.742,144.699 516.738,143.697ZM538.25,167.226C537.274,157.467 531.783,162.071 529.384,155.819C528.878,154.496 528.494,150.746 526.822,149.411C525.564,148.407 522.526,149.426 520.771,149.075C521.632,153.807 532.686,164.444 538.25,167.226ZM997.24,263.024C991.727,260.819 982.148,266.194 981.946,272.1L985.307,271.428L984.635,274.117C988.413,270.969 988.097,266.394 992.03,264.033C991.022,266.045 990.309,267.307 991.358,269.411C994.174,267.8 995.405,265.716 997.24,263.024ZM992.03,271.428C988.245,271.428 987.943,272.88 985.98,276.133C988.427,274.855 987.317,274.706 989.341,276.133C992.023,272.591 991.425,274.296 992.03,271.428ZM964.131,272.436C959.311,275.302 953.711,277.816 953.711,282.184C957.341,281.953 955.781,279.213 958.457,278.466C960.42,277.918 968.501,276.319 964.131,272.436ZM984.635,279.159C982.679,280.047 981.684,282.467 980.601,284.201L984.635,279.159ZM697.577,671.426C694.748,671.426 692.375,672.286 692.199,675.46L693.544,675.46L692.871,678.821C695.29,676.34 697.577,674.935 697.577,671.426ZM702.955,672.77C701.073,675.977 700.159,676.374 700.939,679.493C699.836,679.668 689.005,691.399 689.174,691.93C690.207,695.177 695.122,692.085 694.216,687.56C699.036,687.359 700.132,684.898 700.266,680.165C704.213,680.165 705.564,675.379 702.955,672.77ZM738.586,442.855C736.696,444.399 735.715,446.812 734.552,448.906C736.562,447.231 739.305,445.735 738.586,442.855ZM661.275,506.048C659.257,507.663 658.425,508.495 659.93,510.754C662.186,509.087 661.975,508.875 661.275,506.048ZM632.368,513.443C629.842,515.05 628.334,517.883 628.334,520.838C631.272,518.28 633.013,517.316 632.368,513.443ZM968.823,287.956C967.663,287.485 966.219,287.114 964.467,286.89C968.003,285.073 973.959,281.261 975.223,277.478C985.623,280.008 976.299,263.13 973.879,273.444L975.896,272.772L975.896,276.806C972.595,276.444 969.085,269.79 972.534,268.066C965.133,264.982 965.085,276.121 970.517,277.478L969.173,282.184C967.351,280.903 966.954,276.882 965.079,277.163C962.027,277.62 949.442,286.44 958.417,288.234C955.949,290.994 955.922,294.391 959.761,295.629C960.351,291.8 965.227,288.774 968.823,287.956ZM969.13,288.086C969.812,291.741 966.668,294.219 964.467,296.974C972.47,296.974 975.565,290.922 969.13,288.086ZM992.03,251.932C991.001,255.02 988.03,255.132 987.324,258.654L991.358,258.654C988.695,256.401 992.131,254.137 994.047,252.604L992.03,251.932ZM971.19,255.293C966.699,258.287 971.23,261.678 973.879,264.033C975.606,260.581 973.099,258.159 971.19,255.293ZM1003.46,245.209C999.398,245.209 994.712,253.297 993.374,256.638C996.857,255.6 1003.46,248.917 1003.46,245.209ZM1026.32,246.554L1012.87,259.327C1017.64,256.727 1025.55,252.197 1026.32,246.554ZM957.072,250.587C953.112,249.102 951.667,248.591 948.333,251.26C954.289,254.531 949.052,259.999 958.417,259.999L958.417,253.612C959.331,254.919 959.351,256.665 959.929,258.15C960.917,260.691 966.269,257.684 966.127,255.65C965.912,252.579 959.17,245.422 957.072,250.587ZM1021.95,218.991C1018.48,220.867 1019.24,223.541 1019.59,226.386C1021.02,223.42 1022.67,221.904 1021.95,218.991ZM721.779,220.335C721.779,223.23 722.31,223.803 725.14,224.369C724.266,221.026 724.811,220.335 721.779,220.335ZM624.973,555.124C622.212,559.079 626.097,563.974 620.939,566.552C621.849,567.917 621.97,568.259 623.628,568.569L623.628,565.208C629.966,567.321 626.387,557.246 624.973,555.124ZM852.871,346.721C849.281,346.721 847.298,349.305 848.165,352.772C851.419,350.811 852.871,350.504 852.871,346.721ZM842.787,354.116C843.748,355.182 848.313,356.807 846.713,353.507C845.032,350.03 835.936,355.023 831.439,357.478C827.735,359.503 824.669,362.567 821.019,364.704C806.088,373.455 788.804,380.267 776.985,393.528C771.19,400.037 755.325,414.574 758.626,425.188C760.676,424.162 760.448,420.923 760.77,418.654C763.95,422.772 763.11,420.359 762.787,426.049C767.318,425.261 769.785,421.073 768.293,416.805C765.503,417.885 767.069,416.851 766.148,422.015C760.885,418.895 767.11,413.63 767.493,409.242C775.816,408.864 768.79,404.881 774.216,403.864C773.859,411.453 774.854,409.877 775.56,415.293C778.478,413.429 782.29,407.31 776.232,406.553C776.286,404.946 777.348,389.422 780.159,399.914C784.542,399.741 781.449,396.495 782.955,393.108C785.738,398.362 786.969,395.25 787.661,391.091L789.678,393.108C793.032,388.597 798.39,386.244 799.762,381.007C804.421,383.045 805.18,378.813 805.812,374.957C808.925,374.883 811.701,372.472 813.879,370.251C815.829,371.744 814.72,371.47 817.241,370.923L816.568,378.318C823.627,376.582 818.35,370.145 822.619,368.234L823.291,373.276C825.92,372.15 829.442,369.18 825.308,367.562C827.701,362.63 828.313,363.877 829.341,368.906C836.474,365.716 832.024,364.177 834.383,358.949C838.229,365.535 839.224,361.963 839.425,356.133L842.115,357.478L842.787,354.116ZM788.333,369.578C788.085,373.943 786.706,374.701 783.627,378.318C787.271,375.404 793.442,374.687 788.333,369.578ZM646.149,188.739L644.468,190.756L649.174,192.1C648.285,190.619 647.769,189.414 646.149,188.739ZM814.195,375.041C811.809,376.057 810.888,381.051 814.007,381.553C815.11,379.188 815.479,377.38 814.195,375.041ZM809.51,378.318C808.024,380.299 806.908,383.389 809.846,384.368L809.51,378.318ZM805.476,382.015C801.476,384.232 802.047,386.498 802.451,389.746C805.019,388.034 808.4,385.266 805.476,382.015ZM799.09,386.385C797.563,388.778 797.745,390.279 797.745,393.108C802.182,392.53 800.387,389.56 799.09,386.385ZM795.372,390.524C791.963,391.322 793.019,396.058 795.728,397.141C796.226,394.65 796.414,392.887 795.372,390.524ZM791.822,393.864C789.564,395.886 788.979,398.694 791.695,400.503C792.683,397.531 792.898,396.96 791.822,393.864ZM787.325,397.477C785.012,400.757 785.785,402.124 786.989,404.536C789.523,402.847 789.725,399.398 787.325,397.477ZM783.291,401.175C779.755,403.103 782.101,406.138 784.3,407.898L783.291,401.175ZM771.863,411.931C770.169,413.623 769.476,417.82 771.527,419.326C773.039,416.184 775.244,413.959 771.863,411.931ZM491.864,130.924L491.864,132.941C489.421,132.972 485.463,131.977 484.469,134.958L493.208,134.958C493.208,133.212 493.463,131.897 491.864,130.924ZM1031.02,225.041C1028.33,227.734 1024.92,233.375 1024.3,237.142L1026.99,235.125L1024.97,243.192C1029.29,238.867 1033.52,231.294 1031.02,225.041ZM895.224,228.403C892.844,230.784 892.535,232.493 892.535,235.797C884.703,236.471 893.933,252.276 896.212,254.432C897.819,247.851 893.335,242.948 894.087,236.533C894.403,233.863 896.83,230.809 895.224,228.403ZM1023.63,228.403C1018.72,239.34 1015.58,244.269 1006.82,251.932C1008.85,244.072 1017.81,241.454 1019.59,230.419C1012.82,231.09 1008.3,242.235 1007.49,247.898C1003.01,246.954 1000.83,252.415 1000.1,255.965L1003.46,255.965C999.902,258.562 998.235,256.328 996.064,260.671C1009.99,262.294 1018.88,246.873 1022.11,235.713C1022.69,233.713 1026.61,230.261 1023.63,228.403ZM622.956,539.662C616.454,548.448 611.073,558.249 616.233,568.569C619.058,564.974 617.077,560.688 616.233,556.468C618.663,557.785 619.046,558.733 620.267,561.174C620.165,559.527 618.277,552.202 621.611,551.09L621.611,555.796C626.483,554.949 622.956,547.506 622.956,543.695L624.973,544.368C624.973,542.16 624.513,541.219 622.956,539.662ZM637.746,539.662C637.219,542.298 637.309,543.141 639.762,544.368C640.031,541.057 640.396,540.987 637.746,539.662ZM999.425,196.806C999.196,199.298 997.536,204.736 1000.77,205.545C1001.82,202.747 1002.19,198.649 999.425,196.806ZM1012.2,196.806C1012.09,203.945 1010.25,209.656 1009.19,216.449C1008.69,219.674 1005.48,218.171 1005.48,221.68L1007.16,221.68C1007.85,225.668 1007.89,229.742 1008.16,233.781C1015.32,231.991 1014.09,216.027 1013.54,210.924L1014.89,212.94C1019.59,208.548 1015.34,201.208 1012.2,196.806ZM940.265,311.764C936.83,313.191 936.232,314.079 936.232,316.469C936.729,316.293 945.711,313.439 940.265,311.764ZM930.854,314.116C927.997,314.274 927.418,314.295 925.751,314.747C924.003,315.22 922.262,315.731 920.541,316.28C911.378,319.201 918.847,324.728 920.097,318.486C923.761,322.516 937.173,316.574 930.854,314.116ZM911.358,314.453C900.877,314.453 891.439,326.325 880.434,322.52L880.434,325.209L882.451,325.209L881.106,327.898C884.225,328.418 910.134,316.899 911.358,314.453ZM914.719,320.503C910.114,319.582 907.055,320.498 904.635,324.537C907.943,325.43 907.983,325.912 909.341,323.192C911.486,326.515 914.255,322.834 914.719,320.503ZM875.728,330.587C881.388,330.393 880.084,324.362 876.232,322.436C872.071,320.355 869.953,326.56 875.056,327.226L873.711,328.57L877.745,327.898L875.728,330.587ZM902.955,323.192C898.538,324.338 890.78,326.034 888.501,330.587C891.856,328.972 904.669,327.472 902.955,323.192ZM879.089,331.932C873.718,334.175 873.94,333.31 870.686,334.053C868.434,334.568 867.452,338.03 870.605,337.646C872.723,337.388 879.654,333.382 881.106,331.932L879.089,331.932ZM613.187,564.62C611.649,566.866 611.11,568.291 613.544,569.914C614.062,567.844 614.239,566.531 613.187,564.62ZM621.527,570.46C617.865,567.896 617.7,571.871 618.25,574.62C620.773,572.601 619.577,573.899 621.527,570.46ZM610.855,571.258C608.209,576.172 609.53,580.694 612.872,584.704C615.181,582.064 620.484,577.606 614.889,575.964C614.218,579.267 615.207,578.412 612.872,579.325L610.855,571.258ZM608.166,582.015C607.929,584.148 606.833,587.311 608.838,588.737C609.509,585.199 610.884,583.826 608.166,582.015ZM912.703,285.545C912.434,282.006 908.259,281.127 907.324,284.873L912.703,285.545ZM984.635,283.528C982.773,285.391 980.823,286.841 980.601,289.579C983.452,287.97 983.768,286.562 984.635,283.528ZM752.031,428.738C750.727,433.945 746.209,436.795 745.308,442.183C749.053,438.758 754.888,434.449 752.031,428.738ZM552.368,155.798C540.443,152.816 545.641,153.113 539.595,159.159L549.007,161.176C547.012,163.835 547.907,164.598 550.351,166.554L539.595,166.218C541.753,174.852 556.079,166.652 556.401,159.159C554.436,159.3 548.883,167.671 548.334,157.142C550.879,157.581 551.407,158.131 552.368,155.798ZM992.702,184.033C992.843,187.372 992.985,187.374 996.064,188.739L992.702,184.033ZM1002.11,185.377C1005.54,195.648 1000.58,206.426 1004.8,216.974C1005.74,213.053 1006.77,209.151 1007.62,205.209C1008.84,199.566 1006.16,198.89 1004.88,194.285C1004.26,192.042 1005.32,186.448 1002.11,185.377ZM707.661,633.107C707.002,637.926 702.149,649.241 709.678,649.241C709.517,645.456 710.834,636.209 707.661,633.107ZM553.04,155.126C554.994,157.123 557.62,158.706 558.754,161.26C560.055,164.186 557.532,167.757 563.124,166.554C567.185,165.681 566.604,166.752 567.158,164.537C570.363,164.894 572.958,165.335 575.897,163.865C572.75,160.472 566.656,161.848 562.452,161.848L563.124,157.815C559.498,158.502 557.351,155.24 553.04,155.126ZM995.727,246.554C998.443,245.467 1003.68,236.702 997.744,236.134C993.771,235.753 984.756,247.816 991.358,248.57L991.358,250.587C994.921,248.804 993.294,245.087 992.702,241.848L995.391,241.848L995.727,246.554ZM953.038,236.47C952.467,240.463 954.289,241.41 954.383,245.209C962.309,244.472 957.926,238.099 953.038,236.47ZM738.586,237.814C739.204,241.522 741.483,245.379 744.636,241.176C742.108,240.454 740.085,240.066 738.586,237.814ZM756.064,238.823C751.93,239.436 751.991,240.536 754.048,241.596C755.843,242.52 758.081,241.822 760.098,241.848C759.103,239.86 758.189,239.225 756.064,238.823ZM786.316,245.209C785.194,236.245 780.138,239.341 773.543,242.52C777.227,245.282 781.88,244.913 786.316,245.209ZM790.35,240.503L789.678,243.192C791.883,243.781 790.679,243.181 792.703,245.881C794.807,244.08 793.832,245.295 795.056,241.848L790.35,240.503ZM758.081,244.537C752.428,245.667 744.448,236.311 745.98,248.57C742.397,247.192 740.058,245.481 736.569,247.226C744.596,250.875 751.654,250.772 758.081,244.537ZM949.677,242.52C950.874,245.288 950.901,245.716 953.711,246.554C952.42,244.073 952.366,242.745 949.677,242.52ZM948.333,294.285C950.645,296.721 949.159,296.049 953.038,295.629C951.156,297.645 950.565,299.35 951.566,301.952C958.154,301.046 955.129,295.99 955.728,292.268C955.075,291.975 949.354,279.551 948.413,288.927C948.238,290.705 948.359,292.499 948.333,294.285ZM948.333,294.285L944.971,291.596L945.644,294.957C942.551,294.305 936.232,297.115 936.232,301.007C933.502,298.051 929.065,302.369 930.181,305.713C927.445,305.069 913.099,311.619 912.03,315.125L914.719,315.125L914.719,317.142C918.108,316.743 917.993,315.103 918.753,311.764L922.114,313.78L923.459,309.747C928.581,311.64 926.988,309.516 930.773,307.394C935.822,304.557 941.375,304.988 940.265,298.318L942.282,301.68C945.899,300.287 947.707,298.032 948.333,294.285ZM885.812,310.419C891.197,315.807 891.708,312.196 897.913,311.764L896.568,307.73C900.629,312.077 899.721,309.828 900.602,313.78L903.963,313.108L902.619,308.402C906.316,310.305 905.382,308.827 905.98,312.436C908.965,311.341 908.992,306.506 906.316,304.369C905.173,303.453 902.222,304.694 901.691,304.705C897.577,304.791 896.918,302.994 895.224,306.385C893.556,302.214 889.993,302.943 887.156,298.99C890.814,296.379 889.906,298.079 890.518,294.285L894.551,297.646C895.842,294.013 889.341,290.035 888.837,290.251C884.73,292.012 884.293,297.95 881.859,301.7C878.854,306.346 873.899,308.803 870.646,313.108C865.341,320.115 860.965,328.321 858.249,336.637C862.545,334.728 864.151,336.357 863.627,340.671C867.103,339.378 867.513,339.575 866.988,335.965L864.299,336.637C867.701,333.634 865.872,331.579 865.644,325.881C868.38,329.659 867.358,327.316 867.661,333.276C872.501,330.12 873.267,323.678 866.316,322.52C869.187,320.059 868.501,321.522 869.005,318.486C872.555,321.206 875.002,322.489 877.072,317.814C878.672,321.386 877.301,320.03 881.778,321.175L881.778,315.797C884.898,317.992 884.124,316.472 883.795,320.503C888.447,319.339 886.773,320.625 889.173,317.142C891.956,320.613 893.597,319.572 895.224,315.797C889.462,315.263 892.138,314.928 887.156,316.469L885.812,310.419ZM885.812,310.419L883.795,303.36C885.099,305.479 885.328,308.01 885.812,310.419ZM881.106,315.125C879.97,312.281 877.664,311.425 878.417,308.402C881.126,310.658 882.491,311.667 881.106,315.125ZM633.04,547.057L633.712,543.023L631.695,543.023C632.032,539.181 628.589,530.569 633.04,528.905C633.83,532.413 635.635,535.636 635.057,538.989L637.746,538.317C635.996,533.875 635.257,529.003 635.057,524.2C637.906,527.577 637.435,525.721 637.073,529.578L639.762,530.25C639.617,526.474 639.699,515.019 643.796,513.443C644.821,517.953 643.701,516.29 646.485,518.821L646.485,511.427L649.174,513.443L649.174,508.738C652.878,511.57 652.094,509.725 651.863,514.116C655.315,512.776 651.346,502.067 651.191,501.343C654.275,502.464 654.339,506.641 656.569,509.41C656.633,506.432 656.309,505.748 658.586,504.032L659.258,506.048C661.45,504.428 660.463,500.704 660.603,497.981C663.399,499.263 662.04,499.365 664.636,497.309C664.917,498.906 665.019,500.544 665.477,502.099C667.495,508.961 668.73,494.123 668.67,492.603L671.359,498.654C681.609,490.332 664.898,488.194 659.594,490.922C645.409,498.222 631.748,518.121 625.981,532.603C624.495,536.335 626.734,544.596 626.989,546.384C630.968,544.366 625.945,539.461 629.678,536.973C629.288,541.271 630.763,542.639 631.023,547.057L633.04,547.057ZM633.04,547.057C631.529,552.965 627.549,552.532 629.006,559.157C630.956,557.208 630.158,558.577 629.678,554.452L632.368,555.124C632.867,551.227 635.944,550.035 634.384,546.384L633.04,547.057ZM505.488,852.271C505.868,852.728 506.256,853.176 506.654,853.61C506.2,853.089 505.819,852.651 505.488,852.271ZM442.788,933.61C439.818,938 442.863,944.406 441.99,949.596C440.77,956.85 437.561,964.05 436.759,971.176C436.378,974.557 441.25,982.752 442.116,986.046C445.468,983.283 443.148,983.936 444.469,980.413C449.341,967.445 449.212,965.872 444.805,951.089C448.895,951.875 448.163,956.238 449.511,960.5C456.338,954.739 449.09,951.539 446.15,945.038C449.05,948.09 451.272,949.395 452.2,953.105C453.941,951.216 456.936,949.576 454.553,947.136C449.764,942.242 446.361,939.223 442.788,933.61ZM442.788,966.551C441.826,964.951 440.715,963.707 441.444,961.845C443.923,966.181 446.532,973.374 443.461,977.979C441.681,973.556 437.724,969.085 442.788,966.551ZM530.855,700.333C531.239,702.256 531.223,706.572 533.544,707.056C533.234,704.313 533.983,700.777 530.855,700.333ZM534.217,707.728L534.889,713.106L532.2,713.106C532.722,717.933 530.208,719.775 533.187,723.695C534.129,720.266 541.075,710.014 534.217,707.728ZM555.729,670.754C567.538,658.303 537.389,654.811 540.183,665.964C541.062,669.47 542.324,676.824 546.317,678.821C544.486,682.175 545.843,685.073 549.007,686.888C549.669,681.234 545.517,676.73 544.973,670.754C549.435,672.152 546.797,680.448 551.696,681.51C550.199,676.401 546.434,668.475 549.679,667.392C550.362,671.191 550.026,674.962 553.712,676.804C555.435,670.774 551.267,667.339 551.023,661.342C553.583,663.658 554.074,667.56 555.729,670.754ZM538.25,665.376C535.414,668.999 523.365,691.312 532.872,694.283C532.772,691.587 531.391,687.843 533.544,686.216L535.561,698.989C540.07,693.201 535.331,686.377 535.897,679.493C535.993,678.323 537.671,672.885 539.973,674.491C540.643,674.962 543.583,686.841 546.99,690.249C546.846,687.836 538.88,666.521 538.25,665.376ZM557.074,655.964C558.601,658.102 559.663,660.406 562.452,660.67C560.924,658.532 559.862,656.227 557.074,655.964ZM557.074,679.493L551.023,694.283C556.474,691.775 554.736,684.522 558.418,680.838L557.074,679.493ZM540.939,686.888C541.659,690.848 542.453,692.945 540.351,696.448C541.975,697.987 541.093,697.382 542.956,698.317C543.18,691.762 547.377,693.328 540.939,686.888ZM528.166,688.233C526.88,692.091 526.722,698.458 531.528,699.661C530.654,695.95 530.134,691.58 528.166,688.233ZM529.511,723.863C529.04,726.686 528.845,727.896 531.528,729.241C531.776,725.59 532.385,725.301 529.511,723.863ZM527.494,729.241C526.839,731.755 527.634,731.99 529.511,733.947C529.779,730.639 530.144,730.565 527.494,729.241ZM522.788,740.669C520.99,743.836 521.444,747.157 521.444,750.753C526.615,750.323 526.138,743.184 522.788,740.669ZM522.788,838.148C521.293,841.14 520.256,842.914 523.124,845.207C524.379,842.78 524.727,840.427 522.788,838.148ZM515.393,840.165C513.208,841.913 512.701,842.84 513.376,845.543C516.061,844.198 516.34,843.002 515.393,840.165ZM507.326,845.543C508.193,847.708 508.245,849.98 509.007,852.266C518.703,848.111 510.363,846.713 507.326,845.543ZM518.755,846.215L518.418,852.266C521.072,850.82 520.599,848.057 518.755,846.215ZM514.049,851.593C511.658,852.588 509.559,854.302 509.343,856.971L505.981,855.627L505.981,858.316C508.921,858.316 517.486,856.75 514.049,851.593ZM426.654,914.45C419.516,916.601 412.264,920.743 413.209,926.215C402.418,927.385 419.451,949.838 421.675,954.006C423.362,957.173 420.656,966.793 425.982,967.223C430.821,967.613 432.198,966.067 432.957,961.589C434.075,954.995 434.867,948.346 436.066,941.758C436.991,936.682 441.211,933.758 439.259,928.151C437.528,923.169 434.081,922.504 431.108,919.075C427.721,915.163 432.716,916.978 426.654,914.45ZM428.671,936.971C431.514,935.553 432.163,933.751 433.377,930.921C435.554,933.616 431.562,935.674 434.049,938.988C432.023,938.699 429.853,938.82 428.671,936.971ZM420.604,923.526C420.142,920.89 422.779,916.01 425.982,918.148C424.643,920.326 422.507,921.859 420.604,923.526ZM526.149,696.3C523.538,709.711 521.71,722.343 520.771,735.963C527.197,733.624 524.989,719.224 525.877,714.431C526.299,712.145 528.962,711.769 529.007,709.664C529.105,705.1 528.964,700.051 526.149,696.3ZM539.931,698.989C535.48,701.691 537.114,704.354 540.267,706.384C540.559,703.002 541.254,701.638 539.931,698.989ZM583.964,698.317C582.401,700.273 581.095,701.409 582.62,703.695L585.981,700.333L583.964,698.317ZM973.88,157.162C973.879,157.156 973.879,157.149 973.879,157.142C973.879,157.149 973.879,157.156 973.88,157.162ZM973.88,157.162C974.008,159.837 980.863,177.376 983.29,177.983L983.29,173.277C985.072,175.056 985.872,176.106 985.98,178.655C982.067,178.166 982.094,180.92 982.618,184.033L979.929,182.688L979.257,184.705C977.186,183.047 978.127,184.218 977.24,180.672L979.929,182.016C979.929,177.301 976.373,176.095 975.143,171.848C973.807,167.263 974.073,161.773 973.88,157.162ZM503.292,23.361C499.286,23.726 493.881,25.408 493.881,20C497.053,20.286 502.299,19.388 503.292,23.361ZM550.351,30.42C571.85,30.42 583.941,37.728 604.889,45.21C616.901,49.501 629.609,52.041 641.107,57.563C646.183,60 651.593,61.733 656.569,64.37C661.839,67.162 674.872,77.141 666.653,83.865C667.7,67.737 652.538,65.623 640.015,60C628.135,54.666 615.393,51.505 603.124,47.143C594.256,43.99 585.878,39.574 577.053,36.302C568.908,33.283 559.085,32.526 550.645,31.744L550.351,30.42ZM487.158,59.664C488.313,53.89 500.139,56.464 503.897,57.983C511.508,61.058 509.605,61.863 517.536,67.227C524.759,72.112 534.041,72.164 542.2,73.655C547.439,74.612 552.993,78.727 557.746,79.159L557.746,81.848C544.192,74.425 531.397,76.062 517.074,71.092C511.419,69.131 511.316,63.855 506.99,61.008C502.176,57.84 491.401,59.54 487.158,59.664ZM692.199,75.798C693.05,73.244 697.342,73.912 700.038,73.844C705.96,73.697 711.971,73.135 717.806,74.159C729.833,76.269 741.375,80.544 753.295,83.193C767.486,86.349 782.122,88.16 795.728,93.277C810.034,98.658 820.979,107.896 835.136,113.529C844.629,117.304 855.674,114.541 864.703,119.243C869.765,121.876 876.696,124.382 878.081,129.916L876.4,130.924C867.056,114.388 845.476,120.716 830.605,114.537C823.95,111.775 818.834,106.174 812.535,102.689C806.437,99.317 799.802,97.018 793.295,94.538C779.493,89.28 764.528,87.849 750.095,84.747C741.268,82.85 732.744,79.707 723.923,77.773C715.823,75.997 698.767,76.006 692.199,75.798ZM543.628,104.033L544.973,100C558.512,105.802 568.645,118.427 582.136,121.975C597.965,126.137 614.579,120.038 622.284,136.302C617.494,135.672 616.431,129.672 611.527,128.235C600.638,125.043 589.038,128.236 578.292,123.865C565.585,118.696 556.787,108.639 543.628,104.033ZM627.662,108.067C640.155,96.557 647.953,110.647 659.153,114.642C671.383,119.005 675.451,116.037 686.485,124.201C689.934,126.754 697.241,126.21 698.25,130.252C687.984,127.361 684.94,123.155 675.813,119.916C670.527,118.04 664.765,120.132 659.531,117.878C646.455,112.245 642.921,102.776 627.662,108.067ZM455.562,117.479C454.308,122.495 451.115,118.256 450.183,115.462C452.688,117.241 453.022,118.325 455.562,117.479ZM469.343,122.184C469.211,121.27 469.465,120.238 470.015,119.495C473.334,115.015 471.008,133.701 469.343,122.184ZM497.914,129.579C497.828,126.204 495.903,124.845 496.57,121.512C497.641,123.34 502.66,128.986 497.914,129.579ZM990.685,149.747C967.526,146.928 943.721,138.318 921.442,132.437C915.708,130.923 897.24,128.597 897.24,124.874C920.642,129.665 943.082,135.961 965.98,142.352C971.667,143.94 984.433,144.744 990.685,149.747ZM723.796,138.319C719.957,137.039 717.665,136.779 718.418,132.268C721.88,132.961 724.784,134.377 723.796,138.319ZM537.578,147.058C534.436,146.011 536.064,139.853 536.233,137.647L537.578,147.058ZM733.207,146.386C734.868,142.237 742.572,143.705 743.291,147.731L733.207,146.386ZM585.309,156.47L585.981,149.747C586.288,152.207 586.99,154.453 585.309,156.47ZM984.07,170.861C980.043,170.487 978.585,162.979 978.585,159.159C980.931,163.002 981.67,166.953 984.07,170.861ZM951.694,179.999C949.354,179.263 940.938,164.214 940.938,159.831C946.901,162.386 949.368,173.946 951.694,179.999ZM792.367,175.966C794.175,171.54 799.412,173.332 803.123,172.604C804.286,172.375 805.463,172.133 806.653,172.1C811.526,171.965 816.4,171.968 821.274,172.1C831.13,172.366 834.289,182.627 843.251,186.554C848.978,189.066 857.872,189.329 859.593,196.134C850.928,192.669 841.557,188.195 833.335,183.613C830.041,181.779 829.2,176.597 825.617,175.716C814.834,173.069 803.11,173.646 792.367,175.966ZM656.569,179.999L656.569,174.621C657.859,177.201 658.027,177.57 656.569,179.999ZM920.097,205.545C913.334,202.165 905.442,183.017 903.963,174.621C906.672,177.604 909.771,190.114 913.375,190.756C913.832,196.424 920.097,200.212 920.097,205.545ZM902.619,188.067C899.741,187.107 899.755,183.174 899.257,180.672C902.087,182.793 902.195,184.695 902.619,188.067ZM904.635,207.562C904.635,199.813 898.766,193.681 897.24,186.05L899.257,186.05C899.566,194.755 905.906,201.219 907.997,209.579C906.874,207.9 906.787,207.843 904.635,207.562ZM912.03,206.218C909.523,202.499 902.82,195.808 903.963,190.083C905.22,192.908 908.723,200.84 912.03,200.84L912.03,206.218ZM967.828,200.167C963.116,206.45 961.314,196.657 959.761,192.772C962.296,195.181 964.238,195.471 962.45,198.151C964.279,198.341 964.521,199.971 965.139,201.512L967.828,200.167ZM899.929,205.545C895.956,203.164 894.961,199.676 893.207,195.461C898.504,197.878 897.449,200.59 899.929,205.545ZM924.803,202.856C921.435,202.567 921.812,200.458 921.442,197.478L924.803,202.856ZM958.417,208.907C954.282,207.094 955.237,203.566 953.711,199.495C956.796,200.501 956.4,201.894 956.4,204.873L960.433,202.856C960.299,205.96 958.04,206.001 958.417,208.907ZM944.299,205.545C945.751,202.644 947.297,203.173 950.349,203.529C948.111,205.591 947.452,205.478 944.299,205.545ZM747.997,206.89C751.298,206.852 757.483,208.087 759.426,204.201C759.782,204.774 759.93,205.539 760.488,205.919C761.167,206.382 762.054,206.485 762.868,206.554C767.513,206.942 772.945,206.603 777.745,207.562C782.834,208.58 786.337,212.489 791.695,211.596C792.273,218.112 803.15,224.854 808.669,227.73C810.303,228.583 814.014,227.543 814.888,230.083C816.642,235.185 809.046,229.863 808.333,229.495C804.763,227.656 804.945,229.18 802.451,227.226C799.305,224.759 796.347,222.057 793.207,219.579C779.58,208.821 765.92,208.458 747.997,208.235L747.997,206.89ZM915.392,212.94C913.402,210.41 913.146,209.324 912.703,206.218L915.392,212.94ZM924.131,213.613C921.24,212.649 920.857,208.741 920.097,206.218C923.546,208.507 923.627,209.582 924.131,213.613ZM911.358,214.957L907.997,210.251C910.316,211.024 910.625,212.767 911.358,214.957ZM906.652,219.663C903.022,219.663 903.566,215.706 903.291,212.94L906.652,219.663ZM916.064,217.646C916.615,214.889 917.126,213.29 920.097,212.94L920.097,214.957L921.442,214.285C919.412,219.7 920.568,222.401 922.786,227.73C921.395,225.123 919.405,218.574 916.064,217.646ZM916.064,223.697C913.274,221.605 912.85,219.588 912.03,216.302C912.877,217.576 913.187,218.284 914.719,217.646L916.064,223.697ZM804.804,220.335L806.484,216.974L807.157,218.319C805.362,218.538 806.323,218.161 804.804,220.335ZM913.375,233.108C909.126,228.862 907.728,226.242 906.652,220.335C908.077,222.001 910.773,224.019 910.013,226.386C912.38,227.687 911.876,230.609 913.375,233.108ZM762.115,231.092C758.592,229.814 755.675,226.164 754.72,222.352C756.549,222.542 756.791,224.173 757.409,225.713L759.426,224.369C759.587,227.494 763.049,228.281 762.115,231.092ZM923.459,239.831L916.064,224.369C920.42,225.795 923.459,235.256 923.459,239.831ZM964.467,232.436C965.206,229.293 966.074,228.328 968.501,226.386C967.754,229.483 968.043,232.436 964.467,232.436ZM916.736,245.881L913.375,234.453C914.302,236.307 915.123,239.465 917.408,239.831C917.408,242.847 918.215,243.677 920.77,245.209C917.16,246.851 915.19,246.415 916.064,249.915C914.249,247.325 910.659,244.398 912.346,241.28C913.751,244.381 913.825,244.718 916.736,245.881ZM852.199,246.554C848.716,245.631 849.671,243.589 850.182,240.503L852.199,246.554ZM923.459,245.881C925.2,244.759 924.434,242.987 924.131,241.176C924.951,242.816 925.482,244.962 927.492,245.209C926.477,246.839 925.153,246.22 923.459,245.881ZM923.459,257.982C921.052,255.939 920.151,250.304 918.753,247.226C921.939,249.845 922.363,254.145 923.459,257.982ZM975.896,254.621C977.24,252.944 979.391,252.2 981.274,251.26L981.946,252.604L975.896,254.621ZM922.114,265.377L918.753,257.982C921.314,259.688 921.482,262.542 922.114,265.377ZM942.282,284.873C940.386,282.545 940.07,281.674 939.593,278.822C942.06,281.65 943.069,281.72 942.282,284.873ZM913.375,297.646C910.464,295.319 909.866,293.94 909.341,290.251C912.252,292.578 912.85,293.957 913.375,297.646ZM818.921,494.956C823.889,494.127 833.94,491.538 833.94,496.574C833.94,505.853 832.649,515.092 832.367,524.368C831.977,537.311 832.636,550.283 831.923,563.212C831.291,574.706 824.562,596.864 808.165,593.779C794.76,591.257 798.431,570.16 799.345,561.762C799.876,556.798 800.898,551.877 802.195,547.057C802.982,544.163 804.488,541.614 807.681,541.195C813.086,540.487 819.385,543.446 816.064,550.082C814.37,553.469 811.083,551.64 807.782,553.319C804.905,554.782 804.125,560.255 803.795,562.519C802.39,572.257 800.542,590.599 817.496,582.309C822.847,579.689 825.342,569.516 825.644,564.872C826.33,554.417 825.563,543.912 825.98,533.443C826.31,525.092 827.459,516.79 827.889,508.443C828.031,505.813 828.259,498.871 824.3,497.981C810.35,494.846 796.844,504.422 788.837,514.788C769.348,540.023 770.175,585.203 800.434,602.183C806.034,605.327 813.308,604.117 819.674,603.275C842.437,600.266 858.041,592.219 866.572,570.082C871.123,558.262 870.222,546.632 861.691,537.057C858.807,533.818 855.452,531.011 852.615,527.729C851.19,526.079 852.945,522.903 854.888,524.2C855.923,524.892 856.79,525.837 857.577,526.805C863.358,533.902 870.894,540.491 873.294,549.326C881.435,579.335 843.95,613.315 815.56,611.258C811.802,610.986 808.226,609.497 804.656,608.296C782.922,600.981 773.147,588.339 771.863,565.292C771.311,555.469 770.639,543.11 774.807,533.947C780.132,522.232 789.51,503.899 802.787,498.654C807.916,496.627 813.476,495.864 818.921,494.956ZM593.152,779.438C599.026,781.277 601.222,788.79 602.284,792.689C605.26,803.614 605.336,831.076 589.319,834.585C578.325,836.992 571.908,826.241 572.152,815.438C572.348,806.799 573.445,805.319 576.152,795.438C577.626,790.057 581.688,783.785 586.152,780.438C588.568,778.622 590.36,778.563 593.152,779.438ZM598.082,805.879C597.725,801.462 597.519,797.025 597.01,792.622C596.041,784.219 591.663,773.932 584.152,783.438C578.731,790.295 576.612,802.518 575.645,810.84C575.002,816.367 573.494,827.392 581.948,827.392C580.463,824.42 579.367,822 579.258,818.652C582.71,820.494 580.266,828.205 585.548,827.882C586.328,824.158 584.382,820.124 583.292,816.635C584.772,819.93 585.71,823.977 588.67,826.047L585.309,810.585C589.982,811.802 588.387,820.306 591.99,823.714C595.645,820.669 590.526,807.849 590.015,805.207C594.267,806.793 593.504,813.61 594.721,817.98C599.654,812.81 593.376,807.116 593.376,801.173C595.188,804.293 595.051,805.119 598.082,805.879ZM367.495,792.77C371.091,792.098 371.423,791.338 372.201,794.451C367.748,793.543 368.886,794.76 367.495,792.77ZM369.511,801.846C370.358,799.062 374.193,797.341 376.906,797.812C374.769,799.95 372.315,800.797 369.511,801.846ZM376.906,813.274C373.037,813.059 369.311,810.511 370.856,805.879L376.906,813.274ZM376.906,840.165C375.068,838.968 375.562,836.777 375.562,834.787C378.339,836.178 377.821,837.422 376.906,840.165Z" style="fill-rule:nonzero;"/>
            </g>
        </g>
    </g>
</svg>
