<?xml version="1.0" encoding="UTF-8" standalone="no"?>
<!DOCTYPE svg PUBLIC "-//W3C//DTD SVG 1.1//EN" "http://www.w3.org/Graphics/SVG/1.1/DTD/svg11.dtd">
<svg width="100%" height="100%" viewBox="0 0 57 52" version="1.1" xmlns="http://www.w3.org/2000/svg" xmlns:xlink="http://www.w3.org/1999/xlink" xml:space="preserve" xmlns:serif="http://www.serif.com/" style="fill-rule:evenodd;clip-rule:evenodd;stroke-linecap:round;stroke-linejoin:round;">
    <g transform="matrix(1,0,0,1,-572.886,-618.99)">
        <g transform="matrix(0.99846,-0.0554743,0.0554743,0.99846,-32.3529,34.239)">
            <path d="M574.845,621.845L575.415,621.812L575.558,621.407L576.799,622.055L579.009,621.736L581.145,622.259L582.997,621.529L584.704,621.906L586.399,621.724L586.947,621.341L589.554,621.616L590.22,621.806L590.435,622.268L590.934,621.895L592.928,622.29L594.361,621.833L597.075,622.579L597.593,622.184L600.931,623.25L601.291,622.676L602.174,622.958L603.709,622.792L604.84,623.271L605.191,622.961L607.356,623.435L608.406,623.304L608.685,622.72L609.919,623.745L610.887,623.199L612.287,623.175L613.212,623.467L613.912,623.5L614.068,623.235L617.445,623.661L618.163,623.595L618.567,623.071L619.912,623.865L620.675,623.818L620.913,623.464L622.138,623.891L622.929,623.639L623.095,623.277L623.369,623.702L624.864,623.646L624.98,624.028L624.994,623.661L624.89,623.942L624.599,623.851L624.745,623.581" style="fill:none;fill-rule:nonzero;stroke:black;stroke-width:6px;"/>
        </g>
        <g transform="matrix(1,0,0,1,-1.04898,0)">
            <path d="M576.935,644.892L577.48,644.634L580.226,644.686L580.426,644.369L580.795,644.725L581.737,644.849L582.251,645.424L584.795,644.677L585.261,645.092L585.893,644.739L587.036,644.629L587.879,645.015L587.696,644.907L587.982,644.774L588.362,645.246L588.983,644.518L589.707,644.661L590.046,645.473L590.171,645.141L591.292,644.612L593.747,644.755L595.927,644.449L596.166,644.155L596.422,644.954L596.878,644.203L599.816,644.565L602.371,644.456L602.601,643.853L602.979,644.683L603.313,644.384L604.099,644.663L607.155,644.32L608.535,644.792L609.006,644.635L609.285,644.04L610.104,644.515L610.43,645.332L610.577,644.941L611.383,644.623L613.339,644.549L614.538,644.885L615.559,644.546L616.316,644.595L616.603,645.342L617.149,644.445L620.342,645.106L622.497,644.931L623.669,645.312L624.612,645.017L625.43,645.775L626.257,645.321L626.136,645.627L626.463,645.382L627.076,645.909L627.405,645.422L627.54,645.984L627.548,645.742L626.28,645.606" style="fill:none;fill-rule:nonzero;stroke:black;stroke-width:6px;"/>
        </g>
        <g transform="matrix(1,0,0,1,0.881721,0)">
            <path d="M576.035,666.32L576.227,666.119L576.729,666.493L578.9,666.388L579.91,666.935L581.396,666.376L584.372,666.239L585.967,666.578L587.408,666.294L590.684,666.822L591.634,666.655L592.091,666.252L593.916,666.803L595.477,666.382L598.648,666.446L599.415,666.099L600.331,666.716L601.123,666.137L601.892,666.425L602.458,667.226L602.678,666.851L603.643,666.558L607.798,666.674L608.142,666.941L608.836,666.82L608.991,667.102L610.609,666.846L611.002,667.645L611.941,666.815L617.017,667.253L617.359,667.546L618.263,667.172L618.875,667.569L619.482,667.173L620.066,667.667L620.996,667.048L622.474,667.134L623.302,666.393L623.901,666.994L624.587,666.699" style="fill:none;fill-rule:nonzero;stroke:black;stroke-width:6px;"/>
        </g>
    </g>
</svg>
