<?xml version="1.0" encoding="UTF-8" standalone="no"?>
<!DOCTYPE svg PUBLIC "-//W3C//DTD SVG 1.1//EN" "http://www.w3.org/Graphics/SVG/1.1/DTD/svg11.dtd">
<!-- Created with Vectornator (http://vectornator.io/) -->
<svg height="750.0pt" stroke-miterlimit="10" style="fill-rule:nonzero;clip-rule:evenodd;stroke-linecap:round;stroke-linejoin:round;" version="1.1" viewBox="0 0 975 750" width="975.0pt" xml:space="preserve" xmlns="http://www.w3.org/2000/svg" xmlns:xlink="http://www.w3.org/1999/xlink">
<defs/>
<g id="Layer-1">
<path d="M825.66 459.06C828.877 454.759 833.65 451.264 835.312 446.156C838.286 437.019 835.96 426.649 839.155 417.587C840.58 413.544 844.308 409.648 848.5 408.75C887.927 400.308 928.167 396.25 968 390C964.51 383.104 962.969 374.804 957.531 369.312C948.888 360.583 937.572 354.934 927.031 348.625C905.995 336.034 885.195 322.801 862.875 312.656C849.936 306.775 836.077 301.933 821.906 300.844C816.95 300.463 810.74 303.824 809.122 308.525C804.372 322.33 807.459 337.805 804.285 352.055C802.736 359.012 800.236 366.408 795.125 371.375C780.842 385.256 755.916 379.828 736 380C735.844 344.5 741.841 308.435 735.531 273.5C731.35 250.349 717.13 230.055 705.25 209.75C700.71 201.99 693.868 195.616 686.75 190.125C681.157 185.81 674.777 181.113 667.72 180.8C644.847 179.787 621.287 180.041 599.25 186.25C586.476 189.849 575.479 199.253 566.75 209.25C555.832 221.755 547.386 236.681 541.625 252.25C530.49 282.341 529.792 318.345 540.75 348.5C547.792 367.879 565.032 386.653 584.219 394.75C619.221 409.521 658.257 412.666 696 417C686.406 450.875 682.002 486.672 667.219 518.625C654.768 545.536 634.731 568.431 615.5 591C600.664 608.411 583.632 624.056 565.5 638C540.036 657.582 508.295 668.29 477.375 677C456.271 682.945 434.81 688.26 413 690.5C368.092 695.112 322.542 703.125 277.75 697.5C239.159 692.654 200.958 679.276 167.375 659.656C144.766 646.448 128.892 623.529 114.125 601.906C92.1932 569.792 74.17 534.99 58.0625 499.594C50.9209 483.9 46.7328 466.728 44.8125 449.594C40.3489 409.765 36.9494 369.526 39 329.5C40.2061 305.958 46.1876 282.559 54.5 260.5C65.1643 232.199 79.6099 205.295 95.5 179.562C103.724 166.245 114.407 154.281 126.344 144.156C150.484 123.682 175.52 103.771 203.125 88.2812C230.871 72.7128 260.795 60.8286 291.25 51.625C312.598 45.1736 335.131 40.5854 357.406 41.6562C390.676 43.2556 423.685 50.4075 455.719 59.5312C461.173 61.0847 464.317 67.4715 466.469 72.7188C469.741 80.6989 471.629 89.4693 471.531 98.0938C470.408 197.422 469.959 296.892 462.812 395.969C460.753 424.527 455.065 453.373 444 479.781C438.029 494.031 425.202 504.693 413.188 514.406C401.542 523.821 388.276 531.852 374 536.375C354.688 542.494 334.223 545.467 313.969 545.844C297.954 546.142 280.163 546.735 266.5 538.375C254.512 531.039 247.162 516.509 243.75 502.875C237.02 475.984 238.474 447.674 236.875 420C236.718 417.283 236.449 413.788 238.5 412C248.987 402.855 266.806 400.96 273 388.5C280.082 374.254 276.154 356.531 273.906 340.781C272.775 332.854 268.166 325.535 263.125 319.312C258.323 313.385 252.563 306.771 245.094 305.219C232.163 302.532 217.902 302.722 205.531 307.344C193.154 311.968 181.302 320.514 174.25 331.688C167.652 342.141 167.699 355.743 167.188 368.094C166.911 374.768 168.676 381.733 171.938 387.562C178.417 399.144 192.599 406.515 195.875 419.375C202.946 447.132 196.433 476.974 201.879 505.095C205.205 522.272 212.613 538.781 221.875 553.625C226.701 561.36 234.525 567.638 243 571C272.625 582.753 312.996 583.118 343.625 578.75C374.909 574.288 407.688 567.672 434.031 550.219C461.451 532.052 477.233 496.919 484.375 466.375C490.061 442.057 494.334 417.359 497.031 392.531C500.302 362.419 501.265 332.086 502.25 301.812C504.213 241.489 506.451 181.134 505.875 120.781C505.7 102.417 506.614 83.1329 500 66C495.777 55.0606 485.267 47.0114 475.125 41.125C460.854 32.8421 444.558 28.2934 428.5 24.5C410.332 20.2081 391.653 17.7428 373 17C353.822 16.2363 334.305 16.1619 315.5 20C284.159 26.3967 252.506 33.8821 223.562 47.5C187.852 64.3013 154.253 85.9787 123.281 110.438C102.779 126.629 84.9984 146.642 70.5 168.375C49.5443 199.787 27.9875 232.279 17.75 268.625C7.25242 305.895 8.20291 345.806 9.625 384.5C11.011 422.211 14.0758 460.739 26.125 496.5C40.3878 538.83 65.3276 576.848 87.5 615.625C96.267 630.958 107.023 645.203 118.719 658.438C125.846 666.503 134.076 673.979 143.562 679.062C170.76 693.637 198.765 707.129 228 717C281.849 735.181 341.644 737.491 398 730.125C422.343 726.943 446.809 722.242 469.75 713.5C509.686 698.281 549.362 681.24 585.625 658.625C613.819 641.042 638.309 617.764 661.469 593.938C676.535 578.438 690.765 561.195 699.531 541.438C714.39 507.949 718.795 470.647 731.43 436.257C733.778 429.868 738.317 423.856 744.07 420.217C751.422 415.568 760.339 413.315 769 412.5C777.846 411.667 787.114 412.44 795.5 415.375C810.975 420.791 807.551 441.87 813.5 452C815.874 456.041 821.607 456.707 825.66 459.06ZM635.5 214C650.651 214.242 660.533 222.838 671 234C688.382 252.536 701.397 269.603 702.344 295.906C702.83 309.432 702.092 322.979 701.5 336.5C700.206 366.058 692.55 375.261 663.219 374.844C637.548 374.479 607.372 369.361 591.125 347.125C569.888 318.06 569.621 278.652 585.625 248.125C589.802 240.157 590.812 230.052 599 224.875C610.635 217.518 622.095 213.786 635.5 214ZM852 340.5C871.442 346.981 890.09 356.769 904 372C889.435 376.162 877.64 375.621 861.875 377.25C854.386 378.024 844.662 382.319 837.281 377.625C825.412 370.077 837.672 341.761 852 340.5ZM229 344.5C255.263 345.638 252.864 388.215 226 387C192.297 385.475 192.113 342.902 229 344.5Z" fill="#222222" fill-rule="nonzero" opacity="1" stroke="none"/>
</g>
</svg>
