<?xml version="1.0" encoding="UTF-8" standalone="no"?>
<!DOCTYPE svg PUBLIC "-//W3C//DTD SVG 1.1//EN" "http://www.w3.org/Graphics/SVG/1.1/DTD/svg11.dtd">
<svg width="100%" height="100%" viewBox="0 0 59 56" version="1.1" xmlns="http://www.w3.org/2000/svg" xmlns:xlink="http://www.w3.org/1999/xlink" xml:space="preserve" xmlns:serif="http://www.serif.com/" style="fill-rule:evenodd;clip-rule:evenodd;stroke-linecap:round;stroke-linejoin:round;">
    <g transform="matrix(1,0,0,1,-569.904,-1037.47)">
        <path d="M599.927,1076.33L600.473,1078.29L600.918,1082.24L601.726,1084.37L601.959,1084.34L602.637,1085.7L602.937,1085.72L604.413,1087.59L606.764,1088.47L606.921,1088.79L608.172,1088.85L609.497,1089.54L609.645,1089.92L609.92,1089.62L611.737,1090.57L611.977,1090.35L612.182,1090.67L615.378,1090.9L615.712,1090.69L616.329,1091.2L616.64,1090.94L617.054,1091.28L619.656,1091.17L619.772,1091.39L620.052,1091.03L621.743,1091.47L622.854,1091.05L624.857,1091.31L625.345,1091.04L626.138,1091.37L626.146,1091.01L626.072,1091.32L625.494,1090.71L624.827,1090.74L624.493,1090.35L624.357,1090.64L624.223,1090.24L623.614,1090.38L622.463,1089.47L622.213,1089.7L621.385,1089.16L621.277,1089.35L620.965,1088.86L619.466,1088.41L618.488,1087.34L617.601,1087.06L617.2,1086.09L615.971,1084.66L615.314,1082.92L614.788,1079.26L614.929,1076.13L614.944,1076.49L614.917,1076.27L615.393,1076.44L615.943,1077.03L618.137,1077.09L618.149,1077.35L619.149,1077.2L619.432,1077.45L619.586,1077.09L620.809,1077.51L622.073,1076.98L622.18,1076.64L622.508,1076.87L622.871,1076.26L622.953,1076.54L624.225,1073.66L624.55,1067.27L623.707,1061.84L623.862,1060.1L623.605,1058.14L623.966,1050.23L623.863,1044.46L622.72,1042.63L621.27,1042.17L620.638,1041.61L618.313,1041.01L614.604,1040.69L612.774,1041.1L610.391,1040.97L609.851,1041.2L607.906,1041.18L607.217,1040.77L604.067,1041.28L603.736,1040.96L603.472,1041.23L603.477,1040.89L603.44,1041.12L602.653,1040.97L602.367,1041.22L601.327,1040.84L601.018,1040.99L600.59,1040.55L599.882,1040.87L599.594,1040.6L597.597,1040.65L596.874,1040.37L592.997,1040.48L592.44,1040.07L591.748,1040.04L590.321,1040.29L589.861,1040.01L588.019,1040.15L587.735,1040.4L584.057,1040.3L583.682,1040.57L583.103,1040.3L582.821,1040.51L582.672,1040.03L581.684,1040.44L581.139,1040.11L580.903,1040.37L580.78,1040.05L578.577,1039.82L578.176,1039.47L576.388,1039.98L575.501,1039.85L574.022,1040.67L572.952,1042.9L572.402,1047.84L572.695,1051.4L572.203,1057.94L572.391,1063.13L571.904,1068.82L572.155,1070.68L572.888,1071.88L573.014,1072.71L575.273,1075.34L577.156,1075.9L577.414,1076.33L577.716,1076.07L579.27,1076.64L580.447,1076.56L580.822,1076.95L583.526,1077.14L583.955,1076.83L584.906,1077.37L587.463,1076.98L590.376,1077.09L590.666,1077.43L591.086,1077.11L591.439,1077.42L591.924,1077.08L593.152,1077.47L593.754,1077.13L595.7,1077.23L596.174,1076.86L596.485,1077.22L597.635,1076.98L597.954,1077.25L598.11,1077.01L600.063,1076.92L600.185,1076.66L600.165,1076.97L600.021,1076.78" style="fill:white;fill-rule:nonzero;stroke:black;stroke-width:4px;"/>
        <path d="M586.076,1058.61L585.633,1058.49L584.842,1059.01L584.353,1060.07L584.455,1060.88L584.964,1061.66L585.92,1062.26L587.214,1061.75L587.652,1060.29L587.354,1059.38L586.183,1058.91L585.619,1059.18L585.474,1060.55L586.054,1061.11L586.895,1060.62" style="fill:white;fill-rule:nonzero;stroke:black;stroke-width:4px;"/>
        <path d="M596.959,1058.95L596.403,1059.97L596.477,1061.13L597.003,1062.01L597.837,1062.54L598.938,1062.78L599.8,1062.37L599.998,1061.94L600.115,1062.14L600.001,1060.84L599.074,1059.66L597.148,1059.87L596.947,1060.2L597.221,1060.96L598.246,1061.58L599.339,1061.71L599.787,1061.46L600.065,1061.04L599.732,1060.47" style="fill:white;fill-rule:nonzero;stroke:black;stroke-width:4px;"/>
        <path d="M609.525,1059.74L608.419,1060.32L608.161,1061.03L609.225,1062.76L609.93,1062.95L610.822,1062.98L611.943,1062.11L611.512,1059.88L611.167,1058.96L611.016,1059.22L610.666,1058.99L609.726,1059.2L609.297,1059.77L608.988,1059.66L608.529,1060.78L608.649,1061.49L609.278,1061.92L610.274,1061.75" style="fill:white;fill-rule:nonzero;stroke:black;stroke-width:4px;"/>
    </g>
</svg>
